<?xml version="1.0" encoding="utf-8"?>
<!-- Generator: Adobe Illustrator 24.0.0, SVG Export Plug-In . SVG Version: 6.00 Build 0)  -->
<svg version="1.1" id="图层_1" xmlns="http://www.w3.org/2000/svg" xmlns:xlink="http://www.w3.org/1999/xlink" x="0px" y="0px"
	 viewBox="0 0 350 142" style="enable-background:new 0 0 350 142;" xml:space="preserve">
<title>Group 4 Copy 2</title>
<desc>Created with Sketch.</desc>
<g id="Web">
	<g id="About-us" transform="translate(-925.000000, -5640.000000)">
		<g id="Group-4-Copy-2" transform="translate(925.000000, 5640.000000)">
			<g id="Grand-Chelem-Event-SA-_x5F_-Sport-_x26_-Event-Management-1" transform="translate(96.000000, 48.000000)">
				<path id="Path" d="M-14.7-12.5c0,0,25.7,7.8,13.5,33.7C-1.2,21.2,20-3.4-14.7-12.5L-14.7-12.5z"/>
				<path id="Path_1_" d="M-6,3.2c1.3,3.7-0.2,7.5-3.3,8.6c-3.1,1.1-6.7-1-8-4.7c-1.3-3.7,0.2-7.5,3.3-8.6C-10.9-2.6-7.3-0.5-6,3.2
					L-6,3.2z"/>
				<path id="Path_2_" d="M2.6,27.3c0,0,31.7,37.1-2,27C0.6,54.3,44,72.6,2.6,27.3L2.6,27.3z"/>
				<path id="Path_3_" d="M-42.3-9.4c0,0,81.3,82.9,1.7,64.2c0,0,47,17,38.7-13.3C-7.5,21.1-42.3-9.4-42.3-9.4L-42.3-9.4z"/>
				<path id="Shape" d="M60.3,46.4l-2.5-2.5c-1.9,1.8-3.6,2.9-6.2,2.9c-4.2,0-7.2-3.6-7.2-7.9c0-4.4,3-7.9,7.2-7.9
					c2.5,0,4.4,1.1,6.1,2.8l2.5-2.9c-2.1-2-4.5-3.5-8.5-3.5c-6.6,0-11.2,5.2-11.2,11.5c0,6.4,4.7,11.5,11.1,11.5
					C55.6,50.3,58.1,48.8,60.3,46.4L60.3,46.4z M84.8,40.6v9.4h3.8V27.7h-3.8v9.2H74.4v-9.2h-3.8v22.2h3.8v-9.4H84.8L84.8,40.6z
					 M116.5,27.7h-16.1v22.2h16.3v-3.5h-12.5v-6h10.9V37h-10.9v-5.8h12.3V27.7L116.5,27.7z M127.4,49.9h15.3v-3.6h-11.4V27.7h-3.8
					V49.9L127.4,49.9z M169,27.7h-16.1v22.2h16.3v-3.5h-12.5v-6h10.9V37h-10.9v-5.8H169V27.7L169,27.7z M197.5,34v15.9h3.8V27.7
					h-4.1l-6.6,10.5L184,27.7h-4.1v22.2h3.8V34.1l6.8,10.4h0.1L197.5,34L197.5,34z"/>
				<path id="Shape_1_" d="M60.8,16.2V6.9h-9.2v3.4h5.6v4.2c-1.3,1-3.2,1.7-5.2,1.7c-4.4,0-7.4-3.4-7.4-8c0-4.3,3-7.9,7-7.9
					c2.8,0,4.4,0.9,6.1,2.4l2.4-3c-2.2-1.9-4.6-3-8.3-3C45.1-3.3,40.4,2,40.4,8.2c0,6.5,4.5,11.5,11.3,11.5
					C55.6,19.7,58.6,18.1,60.8,16.2L60.8,16.2z M90.4,19.3l-5.9-8.4c3-0.9,5.2-3.1,5.2-6.8c0-4.3-3.1-7-8.1-7h-9.7v22.2h3.8v-7.7
					h4.8l5.3,7.7H90.4L90.4,19.3z M85.8,4.3c0,2.3-1.7,3.7-4.5,3.7h-5.6V0.6h5.6C84.1,0.6,85.8,1.9,85.8,4.3L85.8,4.3z M111.5-3.1
					H108l-9.6,22.4h3.9l2.2-5.4h10.3l2.2,5.4h4L111.5-3.1L111.5-3.1z M113.4,10.5H106l3.7-8.9L113.4,10.5L113.4,10.5z M146.2,12.4
					L134.5-2.9H131v22.2h3.8V3.5l12,15.8h3.2V-2.9h-3.8V12.4L146.2,12.4z M181.4,8.1c0-6.3-4.7-11.1-11.5-11.1h-8.1v22.2h8.1
					C176.7,19.3,181.4,14.4,181.4,8.1L181.4,8.1z M177.4,8.2c0,4.4-3,7.5-7.5,7.5h-4.3V0.6h4.3C174.4,0.6,177.4,3.8,177.4,8.2
					L177.4,8.2z"/>
			</g>
		</g>
	</g>
</g>
</svg>
