<?xml version="1.0" encoding="utf-8"?>
<!-- Generator: Adobe Illustrator 24.0.0, SVG Export Plug-In . SVG Version: 6.00 Build 0)  -->
<svg version="1.1" id="图层_1" xmlns="http://www.w3.org/2000/svg" xmlns:xlink="http://www.w3.org/1999/xlink" x="0px" y="0px"
	 viewBox="0 0 350 142" style="enable-background:new 0 0 350 142;" xml:space="preserve">
<title>Group 4 Copy 5</title>
<desc>Created with Sketch.</desc>
<g id="Web">
	<g id="About-us" transform="translate(-545.000000, -5852.000000)">
		<g id="Group-4-Copy-5" transform="translate(545.000000, 5852.000000)">
			<g id="Le-Livre-Sur-Les-Quais-1" transform="translate(75.000000, 51.000000)">
				<g id="Group" transform="translate(98.000000, 7.000000)">
					<path id="Path" d="M9.6-5.3c0,0.8-0.6,1.4-1.5,1.4H5.9V9.9h7.6l0.6-2.9c0.1-0.7,0.8-1.2,1.5-1.2c0.9,0,1.6,0.8,1.4,1.7l-0.7,4
						c-0.1,0.7-0.8,1.2-1.5,1.2H0.9c-0.8,0-1.4-0.6-1.4-1.4c0-0.8,0.6-1.4,1.4-1.4h2V-3.9h-2c-0.8,0-1.4-0.6-1.4-1.4
						c0-0.8,0.6-1.4,1.4-1.4h7.2C9-6.7,9.6-6.1,9.6-5.3"/>
					<path id="Shape" d="M21.1,4h6.3c-0.3-1.4-1.6-2.3-3.1-2.3C22.8,1.7,21.5,2.7,21.1,4 M29.1,7.9c0.7,0,1.3,0.6,1.3,1.4
						c0,0.6-0.5,1.3-0.8,1.7c-1.4,1.5-3.4,2.1-5.1,2.1c-4.1,0-6.8-3.1-6.8-6.9c0-4.1,2.8-7,6.6-7c3.9,0,6.2,3.3,6.2,6
						c0,0.8-0.4,1.5-1.6,1.5h-8.1c0,1.6,1.4,3.6,3.6,3.6c1.4,0,2.7-0.6,3.5-1.7C28.2,8,28.6,7.9,29.1,7.9"/>
					<path id="Path_1_" d="M40.7-3.9h-2.6c-0.8,0-1.4-0.6-1.4-1.4c0-0.8,0.6-1.4,1.4-1.4h4.1c0.8,0,1.4,0.6,1.4,1.4V10h2.6
						c0.8,0,1.4,0.6,1.4,1.3c0,0.8-0.6,1.4-1.4,1.4h-8.1c-0.8,0-1.4-0.6-1.4-1.4c0-0.7,0.6-1.3,1.4-1.3h2.6L40.7-3.9L40.7-3.9z"/>
					<path id="Shape_1_" d="M54-7c1.3,0,2.4,1.1,2.4,2.5C56.4-3.1,55.3-2,54-2c-1.4,0-2.4-1.1-2.4-2.5C51.6-5.9,52.6-7,54-7
						 M52.8,2.2h-2.6c-0.8,0-1.4-0.6-1.4-1.4c0-0.8,0.6-1.4,1.4-1.4h4.1c0.8,0,1.4,0.6,1.4,1.4V10h2.6c0.8,0,1.4,0.6,1.4,1.3
						c0,0.8-0.6,1.4-1.4,1.4h-8.1c-0.8,0-1.4-0.6-1.4-1.4c0-0.7,0.6-1.3,1.4-1.3h2.6L52.8,2.2L52.8,2.2z"/>
					<path id="Path_2_" d="M64.8,12l-4.3-9.8h-0.9c-0.8,0-1.4-0.6-1.4-1.4c0-0.8,0.6-1.4,1.4-1.4h5.2c0.8,0,1.4,0.6,1.4,1.4
						c0,0.7-0.7,1.4-1.4,1.4h-1.1l2.9,6.9l2.8-6.9h-1.1c-0.8,0-1.4-0.6-1.4-1.4c0-0.8,0.7-1.4,1.4-1.4h5c0.8,0,1.4,0.6,1.4,1.4
						c0,0.7-0.6,1.4-1.4,1.4h-0.9L68.2,12c-0.3,0.7-1,1-1.7,1C65.7,13.1,65.1,12.7,64.8,12"/>
					<path id="Path_3_" d="M81.3,10h2.3c0.8,0,1.4,0.6,1.4,1.3c0,0.8-0.6,1.4-1.4,1.4H77c-0.8,0-1.4-0.6-1.4-1.4
						c0-0.7,0.6-1.3,1.4-1.3h1.4V2.2h-1.5c-0.8,0-1.4-0.6-1.4-1.4c0-0.8,0.6-1.4,1.4-1.4h2.9c0.8,0,1.4,0.6,1.4,1.4v0.3
						c0.9-1.2,2.3-2,4-2c2.2,0,3.3,1.5,3.3,3c0,1.6-1.2,2.4-2.3,2.4c-1.1,0-2.3-0.7-2.3-2c0-0.3,0.1-0.6,0.2-0.9
						c-1.3,0.1-2.9,1.1-2.9,4.9C81.3,6.5,81.3,10,81.3,10z"/>
					<path id="Shape_2_" d="M92.3,4h6.3c-0.3-1.4-1.6-2.3-3.1-2.3C94,1.7,92.8,2.7,92.3,4 M100.4,7.9c0.7,0,1.3,0.6,1.3,1.4
						c0,0.6-0.5,1.3-0.8,1.7c-1.4,1.5-3.4,2.1-5.1,2.1C91.7,13,89,10,89,6.2c0-4.1,2.8-7,6.6-7c3.9,0,6.2,3.3,6.2,6
						c0,0.8-0.4,1.5-1.6,1.5h-8.1c0,1.6,1.4,3.6,3.6,3.6c1.4,0,2.7-0.6,3.5-1.7C99.5,8,99.9,7.9,100.4,7.9"/>
					<path id="Path_4_" d="M5.9,39.2c-2.7,0-4.1-1.2-4.8-2.1v1.4c0,0.4-0.3,0.7-0.7,0.7s-0.7-0.3-0.7-0.7v-3.7
						c0-0.4,0.2-0.7,0.7-0.7c0.2,0,0.5,0.1,0.7,0.5C1.2,35.1,2.3,38,5.9,38c2.4,0,3.4-1.3,3.4-2.6c0-2.8-4.6-2.2-7.2-3.2
						c-1.2-0.4-2.2-1.3-2.2-3c0-2.1,1.7-3.6,4.3-3.6c1.7,0,3.2,0.5,4.2,1.9v-1.1c0-0.4,0.3-0.7,0.7-0.7c0.4,0,0.7,0.3,0.7,0.7v2.9
						c0,0.4-0.2,0.8-0.7,0.8c-0.4,0-0.6-0.3-0.7-0.5c-0.2-0.5-1.4-2.7-4.2-2.7c-1.8,0-2.9,0.9-2.9,2.3c0,0.9,0.4,1.5,1.2,1.8
						c2.3,1,8.2,0.1,8.2,4.4C10.8,37.6,8.9,39.2,5.9,39.2"/>
					<path id="Path_5_" d="M24.5,37.5h2.4c0.4,0,0.7,0.3,0.7,0.7c0,0.4-0.3,0.7-0.7,0.7h-3.2c-0.4,0-0.7-0.3-0.7-0.7v-1.9
						c-1.1,2-2.9,2.9-4.8,2.9c-2.5,0-4-1.5-4-4.7v-7.2h-2.4c-0.4,0-0.7-0.3-0.7-0.7c0-0.4,0.3-0.7,0.7-0.7H15c0.4,0,0.7,0.3,0.7,0.7
						v8c0,2.6,1.4,3.2,2.7,3.2c2.4,0,4.7-2.1,4.7-5.8v-4.8h-2.4c-0.4,0-0.7-0.3-0.7-0.7c0-0.4,0.3-0.7,0.7-0.7h3.2
						c0.4,0,0.7,0.3,0.7,0.7L24.5,37.5L24.5,37.5z"/>
					<path id="Path_6_" d="M41.5,28.4c0,1.1-0.7,1.9-1.6,1.9c-0.9,0-1.5-0.6-1.5-1.5c0-0.7,0.4-1.3,1-1.5c-0.4-0.3-1.2-0.5-1.9-0.5
						c-2.1,0-4.2,1.9-4.2,5.3v5.4h3.5c0.4,0,0.7,0.3,0.7,0.7c0,0.4-0.3,0.7-0.7,0.7h-7.4c-0.4,0-0.7-0.3-0.7-0.7s0.3-0.7,0.7-0.7
						h2.4V27.2h-2.4c-0.4,0-0.7-0.3-0.7-0.7c0-0.4,0.3-0.7,0.7-0.7h3.1c0.4,0,0.7,0.3,0.7,0.7v1.8c0.7-1.5,2.4-2.8,4.5-2.8
						C39.5,25.6,41.5,26.4,41.5,28.4"/>
					<path id="Path_7_" d="M49.4,35.1l3.5-14.2h-2.8c-0.4,0-0.7-0.3-0.7-0.7c0-0.4,0.3-0.7,0.7-0.7H54c0.4,0,0.6,0.3,0.5,0.7
						l-3.7,15.2c-0.4,1.5,0.1,2.5,1,2.5c0.6,0,1.3-0.4,1.9-1.2c0.2-0.2,0.4-0.3,0.6-0.3c0.6,0,0.8,0.8,0.5,1.2
						c-0.9,1-1.8,1.6-3.1,1.6C50.4,39.2,48.6,38.1,49.4,35.1"/>
					<path id="Shape_3_" d="M58,32.3c6,0.1,7.8-1.9,7.8-3.4c0-1.1-0.9-2.1-2.5-2.1C60.4,26.8,58.5,29.5,58,32.3 M56.4,33.6
						c0-4.3,2.9-8,7-8c2.4,0,3.9,1.5,3.9,3.3c0,1.7-0.9,2.8-2.2,3.5c-2,1.2-5,1.3-7.2,1.2c0.1,2.4,1.6,4.2,4,4.2c1.7,0,3-1,3.8-1.9
						c0.2-0.2,0.4-0.3,0.6-0.3c0.3,0,0.7,0.3,0.7,0.6c0,0.5-0.5,1-0.9,1.4c-1.3,1.2-2.8,1.6-4.2,1.6C58.8,39.2,56.4,36.9,56.4,33.6"
						/>
					<path id="Path_8_" d="M70.3,36l-0.5,2.4c-0.1,0.4-0.4,0.6-0.7,0.6c-0.4,0-0.7-0.3-0.6-0.7l0.8-4.3c0.1-0.3,0.2-0.6,0.7-0.6
						c0.2,0,0.6,0.1,0.7,0.7c0.3,1.4,1.8,3.9,4.9,3.9c2.1,0,3-1.3,3-2.4c0-1.2-0.9-1.8-2.1-2.2c-1.2-0.5-2.7-0.8-3.9-1.4
						c-1.1-0.6-1.9-1.5-1.9-2.9c0-2,1.6-3.4,4-3.4c2.1,0,3.7,1,4.6,2.4l0.4-1.8c0.1-0.4,0.3-0.6,0.7-0.6c0.5,0,0.7,0.4,0.6,0.8
						l-0.7,3.4c-0.1,0.4-0.3,0.6-0.7,0.6c-0.4,0-0.6-0.3-0.7-0.5c-0.1-0.6-1.2-3.2-4.1-3.2c-1.5,0-2.6,0.7-2.6,2.1
						c0,0.8,0.5,1.4,1.2,1.8c2.2,1.3,6.7,1.4,6.7,4.8c0,2.3-1.9,3.7-4.4,3.7C72.8,39.2,71,37.6,70.3,36"/>
					<path id="Shape_4_" d="M99.1,31.3c0-2.4-1.1-4.4-3.7-4.4c-3.2,0-5.3,3.4-5.3,6.5c0,2.4,1.2,4.4,3.7,4.4
						C97,37.9,99,34.4,99.1,31.3 M91.9,44.9c0-0.4,0.2-0.7,0.7-0.7h3.6L98,37c-1.1,1.3-2.4,2.2-4.5,2.2c-3.3,0-4.9-2.7-4.9-5.7
						c0-4.4,3-7.9,6.7-7.9c2.6,0,4.2,1.6,4.6,3.4l0.7-2.5c0.1-0.4,0.4-0.7,0.8-0.7c0.5,0,0.7,0.4,0.7,0.8l-4.3,17.7h2.1
						c0.4,0,0.7,0.3,0.7,0.7c0,0.4-0.3,0.7-0.7,0.7h-7.1C92.2,45.6,91.9,45.3,91.9,44.9"/>
					<path id="Path_9_" d="M113.2,35.2l0.2-0.7c-1.4,2.7-3.4,4.6-5.8,4.6c-2.6,0-3.5-2.2-2.9-4.9l1.7-7.1h-2.3
						c-0.4,0-0.7-0.3-0.7-0.7s0.3-0.7,0.7-0.7h3.4c0.3,0,0.6,0.2,0.5,0.7l-1.9,7.8c-0.5,2.2,0.1,3.5,1.5,3.5c2.9,0,5.8-3.8,7-9.7
						l0.2-0.9h-2.3c-0.4,0-0.7-0.3-0.7-0.7s0.3-0.7,0.7-0.7h3.4c0.3,0,0.7,0.3,0.5,0.7l-2,8.8c-0.3,1.5-0.2,2.5,0.7,2.5
						c0.6,0,1.2-0.5,1.9-1.2c0.2-0.2,0.4-0.3,0.6-0.3c0.6,0,0.8,0.7,0.5,1.1c-0.9,1-2,1.7-3.1,1.7C113.6,39.2,112.6,37.9,113.2,35.2
						"/>
					<path id="Shape_5_" d="M130,31.3c0-2.4-1.1-4.4-3.7-4.4c-3.2,0-5.3,3.4-5.3,6.5c0,2.4,1.2,4.4,3.7,4.4
						C127.9,37.9,130,34.4,130,31.3 M119.5,33.5c0-4.4,3-7.9,6.7-7.9c2.6,0,4.1,1.6,4.6,3.4l0.6-2.5c0.2-1.1,1.7-0.8,1.4,0.2
						l-2.2,8.7c-0.2,0.7-0.4,2.5,0.8,2.5c0.6,0,1.1-0.5,1.8-1.2c0.2-0.2,0.4-0.3,0.6-0.3c0.6,0,0.8,0.7,0.5,1.1
						c-0.9,1-1.8,1.7-3,1.7c-1.1,0-2.1-0.9-2.1-2.6c-1.2,1.5-2.5,2.6-4.8,2.6C121.2,39.2,119.5,36.5,119.5,33.5"/>
					<path id="Shape_6_" d="M138.7,21c0-1,0.8-1.8,1.8-1.8c1,0,1.8,0.8,1.8,1.8c0,1-0.8,1.8-1.8,1.8C139.5,22.8,138.7,22,138.7,21
						 M137.1,35.1l2-7.8h-2.8c-0.4,0-0.7-0.3-0.7-0.7c0-0.4,0.3-0.7,0.7-0.7h3.9c0.3,0,0.6,0.2,0.5,0.7l-2.2,8.8
						c-0.4,1.5-0.2,2.5,0.7,2.5c0.6,0,1.3-0.5,1.9-1.2c0.2-0.2,0.4-0.3,0.6-0.3c0.6,0,0.8,0.8,0.5,1.1c-0.9,1-1.9,1.7-3.2,1.7
						C137.7,39.2,136.3,38.1,137.1,35.1"/>
					<path id="Path_10_" d="M145,36l-0.5,2.4c-0.1,0.4-0.4,0.6-0.7,0.6c-0.4,0-0.7-0.3-0.6-0.7L144,34c0.1-0.3,0.2-0.6,0.7-0.6
						c0.2,0,0.6,0.1,0.7,0.7c0.3,1.4,1.8,3.9,4.9,3.9c2.1,0,3-1.3,3-2.4c0-1.2-0.9-1.8-2.1-2.2c-1.2-0.5-2.7-0.8-3.9-1.4
						c-1.1-0.6-1.9-1.5-1.9-2.9c0-2,1.6-3.4,4-3.4c2.1,0,3.7,1,4.6,2.4l0.4-1.8c0.1-0.4,0.3-0.6,0.7-0.6c0.5,0,0.7,0.4,0.6,0.8
						l-0.7,3.4c-0.1,0.4-0.3,0.6-0.7,0.6c-0.4,0-0.6-0.3-0.7-0.5c-0.1-0.6-1.2-3.2-4.1-3.2c-1.5,0-2.6,0.7-2.6,2.1
						c0,0.8,0.5,1.4,1.2,1.8c2.2,1.3,6.7,1.4,6.7,4.8c0,2.3-1.9,3.7-4.4,3.7C147.5,39.2,145.7,37.6,145,36"/>
					<path id="Path_11_" d="M160.1,35.4c1,0,1.9,0.8,1.9,1.9c0,1.1-0.8,1.9-1.9,1.9c-1,0-1.9-0.8-1.9-1.9
						C158.2,36.2,159.1,35.4,160.1,35.4"/>
				</g>
				<rect id="Rectangle_1_" x="77.6" y="-5.7" width="8" height="52.8"/>
				<rect id="Rectangle_2_" x="64.8" y="0.7" width="8" height="46.4"/>
				<polygon id="Rectangle_3_" points="44.8,44.8 60,-12.1 68.1,-10 52.9,47 				"/>
				<rect id="Rectangle_4_" x="-60.1" y="29.5" width="57.6" height="8"/>
				<polygon id="Rectangle_5_" points="-38.9,38.8 17.7,23.5 19.9,31.7 -36.7,46.9 				"/>
				<polygon id="Rectangle_6_" points="-7.4,40.9 40.6,7 45.4,13.9 -2.6,47.8 				"/>
				<polygon id="Rectangle_7_" points="16.2,42.1 49.8,-6.2 56.7,-1.4 23.1,46.9 				"/>
			</g>
		</g>
	</g>
</g>
</svg>
