<?xml version="1.0" encoding="utf-8"?>
<!-- Generator: Adobe Illustrator 24.0.0, SVG Export Plug-In . SVG Version: 6.00 Build 0)  -->
<svg version="1.1" id="图层_1" xmlns="http://www.w3.org/2000/svg" xmlns:xlink="http://www.w3.org/1999/xlink" x="0px" y="0px"
	 viewBox="0 0 350 142" style="enable-background:new 0 0 350 142;" xml:space="preserve">
<style type="text/css">
	.st0{filter:url(#Adobe_OpacityMaskFilter);}
	.st1{fill-rule:evenodd;clip-rule:evenodd;fill:#FFFFFF;}
	.st2{mask:url(#mask-2_1_);fill-rule:evenodd;clip-rule:evenodd;fill:#1D1D1B;}
</style>
<g id="Web">
	<g id="About-us" transform="translate(-925.000000, -5852.000000)">
		<g id="Group-4-Copy-8" transform="translate(925.000000, 5852.000000)">
			<g id="Group-3" transform="translate(137.000000, 53.000000)">
				<g id="Clip-2">
				</g>
				<defs>
					<filter id="Adobe_OpacityMaskFilter" filterUnits="userSpaceOnUse" x="-23.2" y="-11" width="122.4" height="58">
						<feColorMatrix  type="matrix" values="1 0 0 0 0  0 1 0 0 0  0 0 1 0 0  0 0 0 1 0"/>
					</filter>
				</defs>
				<mask maskUnits="userSpaceOnUse" x="-23.2" y="-11" width="122.4" height="58" id="mask-2_1_">
					<g class="st0">
						<polygon id="path-1_1_" class="st1" points="-23.2,-11 99.2,-11 99.2,47 -23.2,47 						"/>
					</g>
				</mask>
				<path id="Fill-1" class="st2" d="M0.8,10.3c-7,0-13,5.9-13,13c-0.1,7.1,5.9,13.1,12.9,13.1c7.1,0,12.9-5.8,13-13
					C13.6,16.3,7.9,10.4,0.8,10.3L0.8,10.3z M38.5,10.3c-7,0-13,5.9-13.1,13c-0.1,7.1,5.9,13.1,12.9,13.2c7.1,0.1,13-5.8,13-13
					C51.4,16.3,45.6,10.4,38.5,10.3L38.5,10.3z M75.4,10.3c-7,0-12.9,6-12.9,13.1c0,7.1,6,13.1,13,13c7,0,13-6.1,12.9-13.1
					C88.3,16.2,82.4,10.3,75.4,10.3L75.4,10.3z M88.5,45.9c-0.1-0.9-0.1-1.7-0.2-2.7c-5.2,3.1-10.7,4.5-16.6,3.5
					c-5.9-1-10.8-3.8-14.7-8.7c-4.9,6-11.2,9-18.8,9c-7.6-0.1-13.8-3.3-18.5-9.4c-9.2,10.3-19.7,12-31.9,5.7c0,0.9-0.1,1.7-0.1,2.6
					h-10.9v-1.7c0-17.7,0-35.5,0-53.2c0-1.5,0.4-2,1.9-1.9c3,0.1,5.9,0,9,0V3.7C-0.2-2.7,10.4-1,19.6,9.1C28.8-3.1,47.5-3,56.9,8.6
					c9.2-9.7,19.6-11.2,31.4-5c0-0.5,0.1-1.1,0.1-1.6c0-0.5,0-1,0-1.6h10.8v45.4H88.5z"/>
			</g>
		</g>
	</g>
</g>
</svg>
