<?xml version="1.0" encoding="utf-8"?>
<!-- Generator: Adobe Illustrator 24.0.0, SVG Export Plug-In . SVG Version: 6.00 Build 0)  -->
<svg version="1.1" id="图层_1" xmlns="http://www.w3.org/2000/svg" xmlns:xlink="http://www.w3.org/1999/xlink" x="0px" y="0px"
	 viewBox="0 0 350 142" style="enable-background:new 0 0 350 142;" xml:space="preserve">
<g id="Web">
	<g id="About-us" transform="translate(-165.000000, -5852.000000)">
		<g id="Group-4-Copy-3" transform="translate(165.000000, 5852.000000)">
			<g id="Swiss-Open-Gstaad-1" transform="translate(79.000000, 45.000000)">
				<path id="Shape" d="M9.1,58.6l2.3,3.5h-0.5L9.1,58.6z M6.2,53.9l3.6,8.4h1l0,0h1L6.2,53.9L6.2,53.9L6.2,53.9L6.2,53.9z"/>
				<path id="Shape_1_" d="M1.1,58.7L-0.3,62h-0.4L1.1,58.7z M-2.2,62.3h1h1l3.6-8.4L-2.2,62.3z"/>
				<g id="Group" transform="translate(28.000000, 35.000000)">
					<path id="Shape_2_" d="M-23.1,6.5c0.7,0.6,1.5,0.8,2.2,0.7c0.6-0.1,1.1-0.4,1.3-0.6c-0.5-1.5-1.9-2.5-3.5-2.5
						c-1.2,0-2.2,0.5-2.8,1.4c0,0,0,0,0.1,0C-25.1,5.4-24.2,5.7-23.1,6.5 M-22,4.8C-21.9,4.8-21.9,4.8-22,4.8
						c0.2,0.1,0.2,0.1,0.3,0.1c0,0,0.1,0,0.1,0.1l0.1,0.1c0,0,0.1,0,0.1,0.1l0.1,0.1l0.1,0.1l0,0l0,0c0.1,0.1,0.2,0.2,0.2,0.2l0,0
						l0.1,0.1l0,0l0,0c0,0.1,0.1,0.1,0.1,0.2l0,0l0,0c0.1,0.1,0.2,0.3,0.2,0.4c-0.1,0.1-0.3,0.2-0.5,0.3C-20.8,6-21.3,5.3-22,4.8
						L-22,4.8"/>
					<path id="Shape_3_" d="M-19.4,7.8c0-0.2,0-0.3,0-0.5c-0.3,0.2-0.7,0.5-1.3,0.6c-0.1,0-0.2,0-0.4,0c-0.7,0-1.5-0.3-2.2-0.8
						c-0.9-0.7-1.8-1.1-2.4-0.9c-0.5,0.1-0.7,0.3-0.7,0.4c-0.2,0.4-0.3,0.8-0.3,1.4c0,2,1.7,3.7,3.7,3.7
						C-21.1,11.5-19.4,9.8-19.4,7.8 M-22,10.9c0.8-0.6,1.4-1.7,1.5-2.7c0.2-0.1,0.4-0.1,0.6-0.2C-19.9,9.3-20.7,10.4-22,10.9"/>
				</g>
				<path id="Shape_4_" d="M-3.2,31.5L-5,33.3l2.3,2.3l1.9-1.9L-3.2,31.5z M-2.7,35.2L-2.9,35l1.4-1.4l0.2,0.2L-2.7,35.2z"/>
				<path id="Shape_5_" d="M14,21.4c1-0.2,2-0.4,3-0.8c0.1,0,0.2-0.1,0.2-0.1h0.1c1.1-0.4,2.1-0.9,3.1-1.7l0,0l0,0c0,0,0,0,0.1,0
					l0,0c0.2-0.2,0.4-0.3,0.6-0.5c0.3-0.3,0.6-0.5,0.9-0.8c2.3-2.4,3.6-5.5,3.6-8.3c0-0.3,0-0.6-0.1-0.9c0.1,0.5,0.2,1,0.2,1.6
					c0,2.7-1.3,5.7-3.5,8c-0.3,0.3-0.5,0.5-0.8,0.8c-0.2,0.2-0.4,0.3-0.6,0.5l0,0c0,0-0.1,0-0.1,0.1c-0.9,0.7-1.9,1.2-2.9,1.7h-0.1
					c-0.1,0-0.1,0.1-0.2,0.1l0,0l0,0c-1,0.3-2,0.5-3,0.7c-2.1,0.4-4.2,0.9-6.7,2.6c0,0.1,0.1,0.1,0.1,0.2c2.6-1.7,4.6-2.1,6.6-2.6
					c1-0.2,2-0.4,3-0.8c0.1,0,0.2-0.1,0.3-0.1c1-0.4,2-0.9,3-1.7l0.1-0.1c0.2-0.2,0.4-0.3,0.6-0.5c0.3-0.2,0.6-0.5,0.8-0.8
					c3.8-4,4.7-9.8,1.9-12.7c-2.8-2.9-8.2-2.1-12,2c-0.3,0.3-0.5,0.6-0.8,0.8c-0.2,0.2-0.3,0.4-0.5,0.6l-0.1,0.1
					c-0.7,1-1.3,2.1-1.6,3.1C9.1,11.9,9,12,9,12.1c-0.3,1-0.5,2.1-0.7,3.1c-0.4,2.1-0.8,4.2-2.2,6.5c0.4,0.6,0.8,1.3,1.4,2
					C9.9,22.2,12,21.8,14,21.4 M21.2,16.5c-3.3,3.4-7.7,4.4-9.9,2c-2.2-2.3-1.4-7,1.9-10.4c3.3-3.4,7.7-4.4,9.9-2
					S24.4,13.2,21.2,16.5 M12.8,7.8c2.4-2.5,5.4-3.6,7.7-3.1C18.1,4.3,15.3,5.6,13,8c-2,2.1-3.2,4.8-3.2,7.2c0,0.2,0,0.4,0,0.6
					c-0.1-0.4-0.1-0.8-0.1-1.2C9.7,12.3,10.9,9.7,12.8,7.8 M9.2,18.2c0.3,0.5,0.6,1,1,1.5c0.4,0.4,0.9,0.7,1.4,1
					c-1.3,0.4-2.6,0.9-4,1.8C8.3,20.9,8.8,19.6,9.2,18.2"/>
				<g id="Group_1_" transform="translate(34.000000, 11.000000)">
					<path id="Shape_6_" d="M-14.8-5L-15-4.8L-15.2-5c-0.1,0-0.2,0-0.4,0.1l0.3,0.3l-0.9,0.9l-0.8-0.8c-0.3,0.1-0.6,0.2-0.9,0.4
						l-0.5,0.5l-0.1-0.1c-0.1,0-0.2,0.1-0.3,0.1l0.2,0.2l-0.9,0.9l-0.4-0.4c-0.1,0.1-0.2,0.1-0.2,0.2l0.4,0.4l-0.9,0.9l-0.4-0.4
						l-0.1,0.1l-0.1,0.1l0.4,0.4l-0.9,0.9l-0.4-0.4c-0.1,0.1-0.1,0.2-0.2,0.2l0.4,0.4l-0.6,0.6L-23,0.4c-0.1,0.1-0.1,0.2-0.1,0.3
						l0.1,0.1l-0.5,0.5c-0.1,0.3-0.3,0.6-0.4,0.9l0.8,0.8l-0.7,0.8l-0.3-0.3c0,0.1,0,0.2-0.1,0.4l0.2,0.2l-0.2,0.2
						c0,0.1,0,0.3,0,0.4l0.4-0.4l0.9,0.9l-0.9,0.8l-0.3-0.3c0.1,0.3,0.1,0.5,0.2,0.8l0.1-0.1l0.9,0.9l-0.2,0.2l0.1,0.1l0,0l0.1,0.1
						l0.2-0.2l0.9,0.9l-0.1,0.1c0.2,0.1,0.5,0.2,0.8,0.2l-0.3-0.3l0.9-0.9l0.9,0.9l-0.4,0.4c0.1,0,0.3,0,0.4,0l0.2-0.2l0.2,0.2
						c0.1,0,0.2,0,0.4-0.1l-0.3-0.3l0.9-0.9l0.8,0.8c0.3-0.1,0.6-0.2,0.9-0.4l0.4-0.4l0.1,0.1c0.1,0,0.2-0.1,0.3-0.1l-0.2-0.2
						l0.9-0.9l0.4,0.4c0.1-0.1,0.2-0.1,0.2-0.2l-0.4-0.4l0.9-0.9l0.4,0.4l0.1-0.1l0.1-0.1l-0.4-0.4l0.9-0.9l0.4,0.4
						c0.1-0.1,0.1-0.2,0.2-0.2l-0.8-0.4l0.9-0.9l0.2,0.2c0.1-0.1,0.1-0.2,0.1-0.3h-0.1l0.5-0.5c0.1-0.3,0.3-0.6,0.4-0.9l-0.8-0.8
						l0.9-0.9l0.3,0.3c0-0.1,0-0.2,0.1-0.4l-0.2-0.2l0.2-0.2c0-0.1,0-0.3,0-0.4l-0.4,0.4l-0.9-0.9l0.9-0.9l0.3,0.3
						c-0.1-0.3-0.1-0.5-0.2-0.8l-0.1,0.1l-0.9-0.9l0.2-0.2l-0.1-0.1l-0.1-0.1L-11.6-4l-0.9-0.9l0.1-0.1c-0.2-0.1-0.5-0.2-0.8-0.2
						l0.3,0.3L-13.9-4L-14.8-5l0.4-0.3C-14.6-5-14.7-5-14.8-5 M-16.2-3.3l0.9,0.9l-0.9,0.9l-0.9-0.9L-16.2-3.3z M-19.3,2l0.9-0.9
						l0.9,0.9l-0.9,0.9L-19.3,2z M-18.5,3.1L-19.5,4l-0.8-0.9l0.9-0.9L-18.5,3.1z M-18.1,0.8l0.9-0.9l0.9,0.9l-0.9,0.9L-18.1,0.8z
						 M-17.3,2.2l0.9,0.9L-17.3,4l-0.8-0.9L-17.3,2.2z M-17.1,2l0.9-0.9l0.9,0.9l-0.9,0.9L-17.1,2z M-16,0.8l0.9-0.9l0.9,0.9
						L-15,1.8L-16,0.8z M-16.2,0.6l-0.9-0.9l0.9-0.9l0.9,0.9L-16.2,0.6z M-17.3-0.4l-0.9-0.9l0.9-0.9l0.9,0.9L-17.3-0.4z M-17.5-0.2
						l-0.9,0.9l-0.9-0.9l0.9-0.9L-17.5-0.2z M-18.5,0.8l-0.9,0.9l-0.9-0.9l0.9-0.9L-18.5,0.8z M-19.7,2l-0.9,0.9L-21.5,2l0.9-0.9
						L-19.7,2z M-20.7,3.1L-21.6,4l-0.9-0.9l0.9-0.9L-20.7,3.1z M-20.7,5.2l-0.9,0.9l-0.9-0.9l0.9-0.9L-20.7,5.2z M-21.4,4.1
						l0.9-0.9l0.8,0.9L-20.6,5L-21.4,4.1z M-19.5,4.3l0.9,0.9l-0.9,0.9l-0.9-0.9L-19.5,4.3z M-19.3,4.1l0.9-0.9l0.9,0.9L-18.3,5
						L-19.3,4.1z M-17.3,4.3l0.9,0.9l-0.9,0.9l-0.9-0.9L-17.3,4.3z M-17.1,4.1l0.9-0.9l0.9,0.9L-16.2,5L-17.1,4.1z M-16,3.1l0.9-0.9
						l0.9,0.9L-15,4L-16,3.1z M-14.8,2l0.9-0.9L-13,2l-0.9,0.9L-14.8,2z M-13.8,0.8l0.9-0.9l0.9,0.9l-0.9,0.9L-13.8,0.8z M-13.8-1.3
						l0.9-0.9l0.9,0.9l-0.9,0.9L-13.8-1.3z M-13.1-0.2L-14,0.7l-0.9-0.9l0.9-0.9L-13.1-0.2z M-15-0.4L-16-1.3l0.9-0.9l0.9,0.9
						L-15-0.4z M-17.3-4.4l0.9,0.9l-0.9,0.9l-0.9-0.9L-17.3-4.4z M-18.3-3.3l0.9,0.9l-0.9,0.9l-0.9-0.9L-18.3-3.3z M-19.5-2.2
						l0.9,0.9l-0.9,0.9l-0.9-0.9L-19.5-2.2z M-20.5-1.1l0.9,0.9l-0.9,0.9l-0.9-0.9L-20.5-1.1z M-21.6,0l0.9,0.9l-0.9,0.9l-0.9-0.9
						L-21.6,0z M-23.6,2l0.8-0.9l0.9,0.9l-0.9,0.9L-23.6,2z M-23.6,4.1l0.9-0.9l0.9,0.9l-1,0.9L-23.6,4.1z M-23.6,6.4l0.9-0.9
						l0.9,0.9l-1,0.8L-23.6,6.4z M-21.6,8.3l-0.9-0.9l0.9-0.9l0.9,0.9L-21.6,8.3z M-21.4,6.4l0.9-0.9l0.9,0.9l-0.9,0.8L-21.4,6.4z
						 M-19.5,8.3l-0.9-0.9l0.9-0.9l0.9,0.9L-19.5,8.3z M-19.3,6.4l0.9-0.9l0.9,0.9l-0.9,0.8L-19.3,6.4z M-17.3,8.3l-0.9-0.9l0.9-0.9
						l0.9,0.9L-17.3,8.3z M-16.2,7.2l-0.9-0.9l0.9-0.9l0.9,0.9L-16.2,7.2z M-15,6.2L-16,5.2l0.9-0.9l0.9,0.9L-15,6.2z M-14,5
						l-0.8-0.9l0.9-0.9l0.9,0.9L-14,5z M-12.9,3.9l-0.9-0.8l0.9-0.9l0.9,0.9L-12.9,3.9z M-10.9,2l-0.9,0.9L-12.8,2l0.9-0.9L-10.9,2z
						 M-10.9-0.2l-0.9,0.9l-0.9-0.9l0.9-0.9L-10.9-0.2z M-10.9-2.4l-0.9,0.9l-0.9-0.9l0.9-0.9L-10.9-2.4z M-12.9-4.4l0.9,0.9
						l-0.9,0.9l-0.9-0.9L-12.9-4.4z M-13.1-2.4L-14-1.4l-0.9-0.9l0.9-0.9L-13.1-2.4z M-14.2-3.5l-0.9,0.9l-0.9-0.9l0.9-0.9
						L-14.2-3.5z"/>
				</g>
				<path id="Shape_7_" d="M3.4,26.6c0.4-0.4,1-0.9,1.4-1.2c-0.1,0-0.1-0.1-0.2-0.1c-0.4,0.3-0.7,0.6-1.2,1.1l-0.2-0.2
					c0.4-0.3,0.7-0.6,1.2-1c-0.3-0.3-0.7-0.5-1.1-0.8c-0.3,0.3-0.6,0.8-1.1,1.2l-0.4-0.4l-5.4,5.5l2.1,2.2l5.4-5.5L3.4,26.6z
					 M-1.8,32l5.1-5.2l0.2,0.2l-5.1,5.2L-1.8,32z"/>
				<path id="Shape_8_" d="M16,33.3l-1.9-1.9l-2.3,2.3l1.9,1.9L16,33.3z M14.1,31.9l1.4,1.4l-0.2,0.2l-1.4-1.4L14.1,31.9z"/>
				<path id="Shape_9_" d="M-10.3,18.6c0.2,0.2,0.4,0.3,0.6,0.5l0.1,0.1c1,0.7,2.1,1.3,3.1,1.7c0.1,0,0.2,0.1,0.3,0.1
					c1,0.3,2.1,0.5,3.1,0.7c3.1,0.6,6.3,1.3,10.7,5.5l-0.4,0.4l5.3,5.3l2.1-2.1l-5.3-5.3L8.9,26c-4.2-4.4-4.8-7.6-5.5-10.7
					c-0.2-1-0.4-2.1-0.8-3.1c0-0.1-0.1-0.2-0.1-0.3c-0.4-1-0.9-2.1-1.6-3.1L0.8,8.6C0.6,8.4,0.5,8.2,0.3,8C0.1,7.7-0.3,7.4-0.6,7.2
					c-4-4-9.7-5-12.6-2c-2.9,2.9-2.1,8.6,2,12.6C-10.9,18.1-10.6,18.4-10.3,18.6 M9.3,26.1l4.9,5L14,31.2l-4.9-5L9.3,26.1z
					 M0.1,20.9c0.5-0.3,1-0.6,1.4-1c0.4-0.4,0.7-0.9,1-1.4c0.4,1.3,0.9,2.7,1.8,4.2C2.7,21.8,1.3,21.2,0.1,20.9 M-8.6,3.7
					c2.7,0,5.7,1.3,7.9,3.6c0.3,0.3,0.5,0.5,0.8,0.8c0.2,0.2,0.3,0.4,0.5,0.6l0,0c0,0,0,0.1,0.1,0.1c0.7,0.9,1.2,2,1.6,3V12
					c0,0.1,0.1,0.1,0.1,0.2l0,0l0,0c0.3,1,0.5,2.1,0.7,3.1c0.6,3.1,1.3,6.3,5.4,10.7l-0.2,0.2c-4-4.3-4.6-7.4-5.3-10.4
					c-0.2-1-0.4-2.1-0.8-3.1c0-0.1-0.1-0.2-0.1-0.2v-0.1c-0.4-1.1-0.9-2.2-1.6-3.2l0,0l0,0c0,0,0,0,0-0.1l0,0
					C0.4,8.9,0.3,8.7,0.1,8.5c-0.3-0.3-0.5-0.6-0.8-0.9C-3.1,5.2-6.2,3.7-9,3.7c-0.3,0-0.6,0-0.9,0.1C-9.6,3.7-9.2,3.7-8.6,3.7
					 M-12,6.3c2.3-2.3,6.9-1.4,10.3,2s4.3,8.1,2,10.3c-2.3,2.3-6.9,1.4-10.3-2S-14.3,8.7-12,6.3 M-13.4,9c-0.3,2.5,0.9,5.5,3.3,7.9
					c2.1,2.1,4.7,3.3,7.1,3.3c0.2,0,0.4,0,0.6,0c-0.4,0.1-0.8,0.1-1.2,0.1c-2.3,0-4.7-1.2-6.8-3.2C-12.9,14.6-14.1,11.4-13.4,9"/>
				<g id="Group_2_" transform="translate(17.000000, 12.000000)">
					<path id="Shape_10_" d="M-28.1,4.8l0.1,0.1l0.1,0.1l0.4-0.4l0.9,0.9l-0.4,0.4c0.1,0.1,0.2,0.1,0.2,0.2l0.4-0.4l0.9,0.9
						l-0.2,0.2c0.1,0.1,0.2,0.1,0.3,0.1l0.1-0.1l0.5,0.5c0.3,0.1,0.6,0.3,0.9,0.4l0.8-0.8l0.9,0.9l-0.4,0.1c0.1,0,0.2,0,0.4,0.1
						l0.2-0.2l0.2,0.2c0.1,0,0.3,0,0.4,0l-0.4-0.4l0.9-0.9l0.9,0.9L-20,7.9c0.3-0.1,0.5-0.1,0.8-0.2l-0.1-0.1l0.9-0.9l0.2,0.2
						l0.1-0.1l0.1-0.1l-0.2-0.2l0.9-0.9l0.1,0.1c0.1-0.2,0.2-0.5,0.2-0.8l-0.6,0.4l-0.9-0.9l0.9-0.9l0.4,0.4c0-0.1,0-0.3,0-0.4
						l-0.2-0.2l0.2-0.2c0-0.1,0-0.2-0.1-0.4l-0.3,0.3l-0.8-0.7l0.8-0.8c-0.1-0.3-0.2-0.6-0.4-0.9l-0.4-0.4l0.1-0.1
						c0-0.1-0.1-0.2-0.1-0.3l-0.2,0.2L-19.5-1l0.4-0.4c-0.1-0.1-0.1-0.2-0.2-0.2l-0.4,0.4l-0.9-0.9l0.4-0.4l-0.1-0.1l-0.1-0.1
						l-0.4,0.4l-0.9-0.9l0.4-0.4c-0.1-0.1-0.2-0.1-0.2-0.2L-22-3.4l-0.9-0.9l0.2-0.2c-0.1-0.1-0.2-0.1-0.3-0.1l-0.1,0.1l-0.3-0.4
						C-23.7-5-24-5.2-24.3-5.3l-0.8,0.8l-0.9-0.9l0.3-0.3c-0.1,0-0.2,0-0.4-0.1l-0.2,0.2l-0.2-0.2c-0.1,0-0.3,0-0.4,0l0.4,0.4
						l-0.9,0.9l-0.9-0.9l0.3-0.3c-0.3,0.1-0.5,0.1-0.8,0.2l0.1,0.1l-0.9,0.9L-30-4.7l-0.1,0.1l-0.1,0.1l0.2,0.2l-0.6,1l-0.1-0.1
						c-0.1,0.2-0.2,0.5-0.2,0.8l0.3-0.3l0.9,0.9l-0.9,0.8L-31-1.6c0,0.1,0,0.3,0,0.4l0.2,0.2L-31-0.8c0,0.1,0,0.2,0.1,0.4l0.3-0.4
						l0.9,0.9l-0.9,0.8c0.1,0.3,0.2,0.6,0.4,0.9l0.5,0.5l-0.1,0.1c0,0.1,0.1,0.2,0.1,0.3l0.2-0.2l0.9,0.9L-29,3.9
						c0.1,0.1,0.1,0.2,0.2,0.2l0.4-0.4l0.9,0.9L-28.1,4.8z M-27.1,4.4l0.9-0.9l0.9,0.9l-1,0.9L-27.1,4.4z M-25.2,0.2l0.9,0.9
						L-25.2,2l-0.9-0.9L-25.2,0.2z M-26.3,0.9L-27.2,0l0.9-0.9l0.9,0.9L-26.3,0.9z M-23,2l-0.9-0.9l0.9-0.9l0.9,0.9L-23,2z
						 M-21.9,1.3l0.9,0.9l-0.9,0.9l-0.9-0.9L-21.9,1.3z M-23.2,2.2l-0.9,0.9L-25,2.2l0.9-0.9L-23.2,2.2z M-24,0.9L-25,0l0.9-0.9
						l0.9,0.9L-24,0.9z M-24.2,3.2l-0.9,0.9l-0.9-0.9l0.9-0.9L-24.2,3.2z M-24,3.5l0.9,0.9L-24,5.3L-25,4.4L-24,3.5z M-23.8,3.2
						l0.9-0.9l0.9,0.9l-0.9,0.9L-23.8,3.2z M-21.9,3.5l0.9,0.9l-0.9,0.9l-0.9-0.9L-21.9,3.5z M-21.7,3.2l0.9-0.9l0.9,0.9l-0.9,0.9
						L-21.7,3.2z M-19.7,3.5l0.9,0.9l-0.9,0.9l-0.9-0.9L-19.7,3.5z M-20.5,2.2l0.9-0.9l0.9,0.9l-0.9,0.9L-20.5,2.2z M-20.7,2
						l-0.9-0.9l0.9-0.9l0.9,0.9L-20.7,2z M-21.9,0.9L-22.8,0l0.9-0.9L-21,0L-21.9,0.9z M-23-0.2l-0.9-0.9L-23-2l0.9,0.9L-23-0.2z
						 M-24-1.2L-25-2.1L-24-3l0.9,0.9L-24-1.2z M-24.2-1l-0.9,0.9L-26.1-1l0.9-0.9L-24.2-1z M-26.3-1.2l-0.9-0.9l0.9-0.9l0.9,0.9
						L-26.3-1.2z M-26.5-1l-0.9,0.9L-28.4-1l0.9-0.9L-26.5-1z M-28.5-1.2l-0.9-0.9l0.9-0.9l0.9,0.9L-28.5-1.2z M-27.5,0l-0.9,0.9
						L-29.4,0l0.9-0.9L-27.5,0z M-27.3,0.2l0.9,0.9L-27.3,2l-0.9-0.9L-27.3,0.2z M-26.3,1.3l0.9,0.9l-0.9,0.9l-0.8-0.9L-26.3,1.3z
						 M-26.1,5.5l0.9-0.9l0.9,0.9l-0.9,0.8L-26.1,5.5z M-24,7.4L-25,6.5l0.9-0.9l0.9,0.9L-24,7.4z M-23.8,5.5l0.9-0.9l0.9,0.9
						l-1,0.8L-23.8,5.5z M-21.9,7.4l-0.9-0.9l0.9-0.9l0.9,0.9L-21.9,7.4z M-21.7,5.5l0.9-0.9l0.9,0.9l-0.9,0.8L-21.7,5.5z
						 M-19.7,7.4l-0.9-0.9l0.9-0.9l0.9,0.9L-19.7,7.4z M-17.8,5.5l-0.8,0.8l-0.9-0.9l0.9-0.9L-17.8,5.5z M-17.8,3.2l-0.9,0.9
						l-0.8-0.9l0.9-0.9L-17.8,3.2z M-17.8,1.1L-18.7,2l-0.9-0.9l0.9-0.9L-17.8,1.1z M-18.8,0l-0.9,0.9L-20.6,0l0.9-0.9L-18.8,0z
						 M-19.9-1l-0.9,0.9L-21.8-1l0.9-0.9L-19.9-1z M-21-2.1l-0.9,0.9l-0.9-0.9l0.9-0.9L-21-2.1z M-22.1-3.1L-23-2.2l-0.9-0.9L-23-4
						L-22.1-3.1z M-24-5.1l0.9,0.9L-24-3.3L-25-4.2L-24-5.1z M-24.2-3.1l-0.9,0.9l-0.9-0.9l0.9-0.9L-24.2-3.1z M-26.3-5.1l0.9,0.9
						l-0.9,0.9l-0.9-0.9L-26.3-5.1z M-26.5-3.1l-0.9,0.9l-0.9-0.9l0.9-0.9L-26.5-3.1z M-28.5-5.1l0.9,0.9l-0.9,0.9l-0.9-0.9
						L-28.5-5.1z M-30.4-3.1l0.9-0.9l0.9,0.9l-0.9,0.9L-30.4-3.1z M-30.4-1l0.9-0.9l0.9,0.9l-0.9,0.9L-30.4-1z M-30.4,1.1l0.9-0.9
						l0.9,0.9L-29.5,2L-30.4,1.1z M-29.3,2.2l0.9-0.9l0.8,0.9l-0.9,0.9L-29.3,2.2z M-28.3,3.2l0.9-0.9l0.8,0.9l-0.9,0.9L-28.3,3.2z"
						/>
				</g>
				<g id="Group_3_">
					<polyline id="Path" points="-6.4,6.1 -6.4,6.1 -6.3,6.1 -6.4,6.1 					"/>
					<path id="Shape_11_" d="M-38.6,16.5c0,0,0.5,3,2.7,6.8c2.1,3.8,4.4,5.7,4.4,5.7l0,0l0,0c0,0-0.5-3-2.6-6.8
						C-36.2,18.4-38.6,16.5-38.6,16.5z M-34.5,22.4c0.8,1.4,1.3,2.8,1.7,3.8l-4.1-7.3C-36.1,19.8-35.3,21-34.5,22.4"/>
					<path id="Shape_12_" d="M-26.3,25.5L-26.3,25.5c0,0-0.5,3,0.2,7.2c0.8,4.2,2.2,6.9,2.2,6.9s0.5-3-0.2-7.2
						C-24.8,28.1-26.3,25.5-26.3,25.5L-26.3,25.5z M-25.4,28.3c0.4,1.1,0.8,2.5,1.1,4.1c0.3,1.6,0.4,3.1,0.4,4.2L-25.4,28.3z"/>
					<path id="Shape_13_" d="M-27.6,36.5c0,0-1.5-2.6-4.9-5.3c-3.4-2.7-6.2-3.7-6.2-3.7s1.5,2.6,4.9,5.3
						C-30.4,35.5-27.6,36.5-27.6,36.5 M-36.1,29.1c1,0.5,2.1,1.3,3.5,2.4c1.2,1,2.2,2.1,3.1,2.9L-36.1,29.1z"/>
					<path id="Path_1_" d="M-22,43.1l-13-5.8c0,0,2.1,2.2,6,3.9C-25,42.9-22,43.1-22,43.1"/>
					<path id="Shape_14_" d="M-35,37.3l13,5.8c0,0-2.1-2.2-6-3.9C-32.1,37.5-35,37.3-35,37.3 M-32.2,38.2c1.1,0.3,2.5,0.7,4,1.4
						c1.5,0.6,2.8,1.4,3.7,2.1L-32.2,38.2z"/>
					<path id="Path_2_" d="M-13.1,48.8L-21.1,37c0,0,0.7,3,3.2,6.5C-15.5,46.9-13.1,48.8-13.1,48.8"/>
					<path id="Shape_15_" d="M-16.2,42.2c-2.5-3.6-4.9-5.3-4.9-5.3l8.1,11.8C-13.1,48.8-13.8,45.8-16.2,42.2 M-16.4,42.4
						c0.9,1.3,1.6,2.6,2,3.6l-4.7-6.8C-18.4,40.1-17.4,41.1-16.4,42.4"/>
					<path id="Shape_16_" d="M-16.2,48.3c0,0-2.6-1.6-6.7-2.6c-4.2-0.9-7.1-0.5-7.1-0.5s2.6,1.6,6.7,2.6
						C-19.2,48.6-16.2,48.3-16.2,48.3 M-23,46c1.6,0.3,3,0.8,4,1.2l-8.2-1.8C-26,45.5-24.6,45.6-23,46"/>
					<path id="Path_3_" d="M-0.3,53.5l-11.5-8.4c0,0,1.6,2.6,5.1,5C-3.3,52.7-0.3,53.5-0.3,53.5"/>
					<path id="Shape_17_" d="M-5.5,48.5c-3.5-2.6-6.3-3.4-6.3-3.4l11.5,8.4C-0.3,53.5-2,51-5.5,48.5 M-5.7,48.8
						c1.3,0.9,2.3,1.9,3.2,2.8l-6.7-4.9C-8.2,47-6.9,47.8-5.7,48.8"/>
					<path id="Path_4_" d="M-22.5,52c0,0,2.8,1.1,7,1.2s7.1-0.8,7.1-0.8L-22.5,52z"/>
					<path id="Shape_18_" d="M-22.5,52.1l14.2,0.5c0,0-2.8-1.3-7-1.4S-22.5,52.1-22.5,52.1 M-19.5,51.7c0.9-0.1,2.1-0.2,3.4-0.2
						c0.2,0,0.5,0,0.7,0c1.6,0,3.1,0.2,4.2,0.5L-19.5,51.7z"/>
					<path id="Shape_19_" d="M-0.3,55.1L-0.3,55.1L-0.3,55.1c0,0-3-0.7-7.1-0.1c-4.3,0.5-6.9,1.9-6.9,1.9s3,0.7,7.1,0.1
						C-3.1,56.5-0.3,55.1-0.3,55.1L-0.3,55.1z M-11.5,56.2c1.1-0.3,2.5-0.6,4.1-0.8c1.1-0.1,2.1-0.2,3.3-0.2c0.3,0,0.6,0,0.9,0
						L-11.5,56.2z"/>
					<path id="Path_5_" d="M-26.8-3.8c-2,3.8-2.6,6.8-2.6,6.8l6.8-12.5C-22.6-9.7-24.8-7.6-26.8-3.8"/>
					<path id="Shape_20_" d="M-25.1-2.9c2-3.8,2.6-6.8,2.6-6.8l-6.8,12.5C-29.4,2.9-27.2,0.9-25.1-2.9 M-23.7-6.8
						c-0.4,1.1-0.9,2.4-1.7,3.8c-0.8,1.4-1.6,2.6-2.2,3.5L-23.7-6.8z"/>
					<path id="Shape_21_" d="M-23.8,1.3c0,0-2.5,1.8-4.8,5.4s-3.1,6.6-3.1,6.6s2.5-1.8,4.8-5.4S-23.8,1.3-23.8,1.3 M-29.7,11l4.6-7
						c-0.5,1-1.1,2.4-2,3.7C-28,9.1-28.9,10.2-29.7,11"/>
					<path id="Shape_22_" d="M-36.4,12.2c1.3,4.1,3.2,6.5,3.2,6.5l0,0l0,0c0,0,0.1-3-1.2-7.1c-1.3-4.1-3.2-6.5-3.2-6.5
						S-37.8,8.1-36.4,12.2 M-34.8,11.7c0.5,1.5,0.8,3,0.9,4.1l-2.6-7.9C-35.8,8.8-35.3,10.1-34.8,11.7"/>
					<path id="Path_6_" d="M-29.7,28l0.7-14.3c0,0-1.2,2.8-1.4,7.1C-30.5,25.1-29.7,28-29.7,28"/>
					<path id="Shape_23_" d="M-28.9,13.7L-29.6,28c0,0,1.2-2.8,1.4-7.1C-28.1,16.6-28.9,13.7-28.9,13.7 M-28.6,20.9
						c-0.1,1.6-0.3,3-0.5,4.1l0.4-8.3C-28.6,17.8-28.5,19.3-28.6,20.9"/>
					<path id="Path_7_" d="M-32.5-3.8c0,0-1,2.9-1.1,7.2c0,4.3,0.9,7.2,0.9,7.2L-32.5-3.8z"/>
					<path id="Shape_24_" d="M-32.7,10.5c0,0,1.4-2.9,1.4-7.2c0.1-4.3-1.1-7.2-1.1-7.2L-32.7,10.5z M-32-0.9
						c0.3,1.1,0.4,2.6,0.4,4.2s-0.3,3.1-0.5,4.2L-32-0.9z"/>
					<path id="Shape_25_" d="M42.1,29L42.1,29L42.1,29L42.1,29L42.1,29c0,0,2.2-1.9,4.4-5.7c2.1-3.7,2.7-6.8,2.7-6.8l0,0l0,0
						c0,0-2.3,1.9-4.4,5.7C42.6,25.9,42.1,28.9,42.1,29 M47.4,18.9l-4.1,7.3c0.4-1.1,0.9-2.4,1.7-3.8C45.9,21,46.7,19.8,47.4,18.9"
						/>
					<path id="Shape_26_" d="M36.9,25.5L36.9,25.5c0,0-1.5,2.6-2.2,6.9c-0.8,4.2-0.2,7.2-0.2,7.2s1.5-2.6,2.2-6.9
						C37.4,28.5,36.9,25.5,36.9,25.5L36.9,25.5z M34.5,36.6c0-1.1,0.1-2.6,0.4-4.2c0.3-1.6,0.7-3,1.1-4.1L34.5,36.6z"/>
					<path id="Shape_27_" d="M43,31.1c-3.4,2.7-4.9,5.3-4.9,5.3s2.9-0.9,6.2-3.7c3.4-2.7,4.9-5.3,4.9-5.3S46.4,28.5,43,31.1
						 M40.3,34.3c0.7-0.8,1.7-1.8,3.1-2.9c1.2-1,2.5-1.7,3.5-2.4L40.3,34.3z"/>
					<path id="Path_8_" d="M39.5,41.2c3.9-1.7,6-3.9,6-3.9l-13,5.8C32.6,43.1,35.6,42.9,39.5,41.2"/>
					<path id="Shape_28_" d="M38.6,39.3c-3.9,1.7-6,3.9-6,3.9l13-5.8C45.6,37.3,42.6,37.5,38.6,39.3 M38.8,39.6
						c1.5-0.7,2.9-1.1,4-1.4l-7.6,3.4C36.1,41,37.3,40.3,38.8,39.6"/>
					<path id="Path_9_" d="M31.7,37l-8.1,11.8c0,0,2.5-1.7,4.9-5.3C30.9,39.9,31.7,37,31.7,37"/>
					<path id="Shape_29_" d="M31.7,37c0,0-2.5,1.7-4.9,5.3c-2.5,3.6-3.2,6.5-3.2,6.5L31.7,37z M27.1,42.4c0.9-1.3,1.8-2.5,2.7-3.3
						L25,46C25.4,45.1,26.2,43.8,27.1,42.4"/>
					<path id="Shape_30_" d="M33.5,45.6c-4.2,0.9-6.7,2.6-6.7,2.6s3,0.4,7.1-0.5s6.7-2.6,6.7-2.6S37.6,44.7,33.5,45.6 M33.5,46
						c1.6-0.4,3.1-0.5,4.2-0.6l-8.2,1.8C30.7,46.8,32,46.3,33.5,46"/>
					<path id="Path_10_" d="M17.3,50.1c3.5-2.6,5.1-5,5.1-5l-11.5,8.4C10.8,53.5,13.8,52.7,17.3,50.1"/>
					<path id="Shape_31_" d="M22.4,45.1c0,0-2.9,0.8-6.3,3.4c-3.5,2.6-5.1,5-5.1,5L22.4,45.1z M16.3,48.8c1.3-0.9,2.6-1.6,3.6-2.2
						l-6.7,4.9C13.9,50.7,14.9,49.7,16.3,48.8"/>
					<path id="Path_11_" d="M26,53.2c4.3-0.1,7-1.2,7-1.2l-14.2,0.4C18.8,52.4,21.7,53.3,26,53.2"/>
					<path id="Shape_32_" d="M25.9,51.1c-4.3,0.1-7,1.4-7,1.4L33,52.1C33,52.1,30.1,51,25.9,51.1 M25.9,51.5c0.2,0,0.5,0,0.7,0
						c1.3,0,2.5,0.1,3.4,0.2l-8.2,0.3C22.8,51.7,24.2,51.6,25.9,51.5"/>
					<path id="Shape_33_" d="M25,56.9c0,0-2.7-1.4-6.9-1.9c-4.3-0.5-7.1,0.1-7.1,0.1l0,0l0,0l0,0l0,0c0,0,2.7,1.4,6.9,1.9
						C22.1,57.6,25,56.9,25,56.9L25,56.9L25,56.9z M13.8,55.1c0.3,0,0.6,0,0.9,0c1,0,2.1,0.1,3.3,0.2c1.6,0.2,3,0.5,4.1,0.8
						L13.8,55.1z"/>
					<path id="Path_12_" d="M37.4-3.8c-2-3.8-4.3-5.7-4.3-5.7l6.8,12.5C39.9,2.9,39.5,0,37.4-3.8"/>
					<path id="Shape_34_" d="M39.9,2.9L33.1-9.7c0,0,0.4,3,2.6,6.8C37.7,0.9,39.9,2.9,39.9,2.9 M38.2,0.5C37.5-0.4,36.7-1.6,36-3
						c-0.8-1.4-1.3-2.8-1.7-3.8L38.2,0.5z"/>
					<path id="Shape_35_" d="M39.1,6.7c-2.3-3.6-4.8-5.4-4.8-5.4s0.7,3,3.1,6.6c2.3,3.6,4.8,5.4,4.8,5.4S41.5,10.3,39.1,6.7
						 M37.7,7.8c-0.9-1.3-1.5-2.7-2-3.7l4.6,7C39.4,10.2,38.6,9.1,37.7,7.8"/>
					<path id="Shape_36_" d="M43.8,18.7L43.8,18.7c0,0,1.8-2.4,3.2-6.5s1.2-7.1,1.2-7.2l0,0l0,0l0,0c0,0-1.8,2.4-3.2,6.5
						C43.7,15.7,43.8,18.7,43.8,18.7 M45.4,11.7c0.5-1.5,1-2.9,1.5-3.9l-2.6,8C44.5,14.6,44.8,13.2,45.4,11.7"/>
					<path id="Path_13_" d="M40.9,20.8c-0.2-4.3-1.4-7.1-1.4-7.1L40.2,28C40.3,28,41.1,25.1,40.9,20.8"/>
					<path id="Shape_37_" d="M38.8,20.9c0.2,4.3,1.4,7.1,1.4,7.1l-0.7-14.3C39.4,13.7,38.6,16.6,38.8,20.9 M39.1,20.9
						c-0.1-1.6,0-3.1,0.1-4.2l0.4,8.3C39.4,23.9,39.2,22.5,39.1,20.9"/>
					<path id="Path_14_" d="M44.1,3.4C44.1-1,43-3.8,43-3.8l0.2,14.3C43.2,10.5,44.1,7.7,44.1,3.4"/>
					<path id="Shape_38_" d="M43.5,10.5L43.2-3.7c0,0-1.3,2.9-1.1,7.2C42.1,7.7,43.5,10.5,43.5,10.5 M42.9-0.9L43,7.5
						c-0.3-1.1-0.5-2.6-0.5-4.2C42.5,1.7,42.6,0.3,42.9-0.9"/>
					<path id="Shape_39_" d="M170.3,41.6c0,3.4-2.3,5.8-5.9,5.8H161V35.8h3.4C167.9,35.8,170.3,38.2,170.3,41.6 M173.4,41.5
						c0-4.8-3.7-8.6-9.1-8.6H158V50h6.3C169.8,50.1,173.4,46.4,173.4,41.5 M148.4,43.4h-5.9l3-6.9L148.4,43.4z M146.9,32.9h-2.8
						l-7.6,17.3h3.1l1.7-4.1h8.1l1.7,4.1h3.2L146.9,32.9z M129,43.4h-5.9l3-6.9L129,43.4z M127.5,32.9h-2.8l-7.6,17.3h3.1l1.7-4.1
						h8.1l1.7,4.1h3.2L127.5,32.9z M111.3,35.8h5.4V33h-13.9v2.8h5.4v14.4h3.1V35.8L111.3,35.8z M91.2,37.5c0-1.1,1-2.1,2.8-2.1
						c1.5,0,3.1,0.6,4.6,1.7l1.6-2.3c-1.7-1.4-3.7-2.2-6.2-2.2c-3.4,0-5.8,2.1-5.8,5c0,3.2,2,4.3,5.7,5.1c3.2,0.7,3.9,1.4,3.9,2.7
						c0,1.3-1.1,2.2-3.1,2.2c-2.1,0-3.8-0.8-5.4-2.3l-1.8,2.2c2,1.8,4.5,2.8,7.1,2.8c3.6,0,6.1-1.9,6.1-5.1c0-2.9-1.8-4.2-5.5-5
						C91.9,39.4,91.2,38.8,91.2,37.5 M84.1,47.8v-7.2h-7.3v2.7h4.4v3.2c-1,0.8-2.6,1.3-4.1,1.3c-3.5,0-5.8-2.6-5.8-6.2
						c0-3.4,2.3-6.1,5.5-6.1c2.1,0,3.5,0.7,4.8,1.8l1.9-2.3c-1.7-1.5-3.6-2.4-6.5-2.4c-5.1,0-8.8,4.1-8.8,8.9c0,5,3.5,8.8,8.9,8.8
						C80,50.4,82.4,49.2,84.1,47.8"/>
					<path id="Shape_40_" d="M228.1,15.4l-9.2-11.9h-2.8v17.1h3V8.5l9.4,12.2h2.6V3.6h-3V15.4L228.1,15.4z M211.8,3.6h-12.7v17.1
						h12.8V18h-9.8v-4.6h8.6v-2.7h-8.6V6.2h9.7V3.6z M192.4,9.4c0,1.8-1.4,3.1-3.7,3.1h-3.6V6.3h3.5C190.9,6.2,192.4,7.4,192.4,9.4
						 M195.4,9.3c0-3.5-2.6-5.7-6.5-5.7h-6.7v17.1h3v-5.5h3.4C192.3,15.1,195.4,13.2,195.4,9.3 M174.8,12.2c0,3.4-2.3,6.1-5.7,6.1
						c-3.4,0-5.8-2.8-5.8-6.2c0-3.4,2.3-6.1,5.7-6.1C172.4,6,174.8,8.8,174.8,12.2 M177.9,12.1c0-4.8-3.7-8.8-8.9-8.8
						c-5.2,0-9,4-9,8.9c0,4.8,3.7,8.8,8.9,8.8C174.3,21,177.9,17,177.9,12.1 M139.1,8c0-1.1,1-2.1,2.8-2.1c1.5,0,3.1,0.6,4.6,1.7
						l1.6-2.3c-1.7-1.4-3.7-2.2-6.2-2.2c-3.4,0-5.8,2.1-5.8,5c0,3.2,2,4.3,5.7,5.1c3.2,0.7,3.9,1.4,3.9,2.7c0,1.3-1.1,2.2-3.1,2.2
						c-2.1,0-3.8-0.8-5.4-2.3l-1.8,2.2c2,1.8,4.5,2.8,7.1,2.8c3.6,0,6.1-1.9,6.1-5.1c0-2.9-1.8-4.2-5.5-5
						C139.9,9.9,139.1,9.4,139.1,8 M123.2,8c0-1.1,1-2.1,2.8-2.1c1.5,0,3.1,0.6,4.6,1.7l1.6-2.3c-1.7-1.4-3.7-2.2-6.2-2.2
						c-3.4,0-5.8,2.1-5.8,5c0,3.2,2,4.3,5.7,5.1c3.2,0.7,3.9,1.4,3.9,2.7c0,1.3-1.1,2.2-3.1,2.2c-2.1,0-3.8-0.8-5.4-2.3l-1.8,2.2
						c2,1.8,4.5,2.8,7.1,2.8c3.6,0,6.1-1.9,6.1-5.1c0-2.9-1.8-4.2-5.5-5C123.9,9.9,123.2,9.4,123.2,8 M112.5,20.7h3V3.6h-3V20.7z
						 M90.4,16.3L86.3,3.6H83L89,20.9h2.6l4.2-12.3l4.2,12.3h2.6l5.9-17.3h-3.2l-4.1,12.7L96.9,3.5h-2.6L90.4,16.3z M71.4,8
						c0-1.1,1-2.1,2.8-2.1c1.5,0,3.1,0.6,4.6,1.7l1.6-2.3c-1.7-1.4-3.7-2.2-6.2-2.2c-3.4,0-5.8,2.1-5.8,5c0,3.2,2,4.3,5.7,5.1
						c3.2,0.7,3.9,1.4,3.9,2.7c0,1.3-1.1,2.2-3.1,2.2c-2.1,0-3.8-0.8-5.4-2.3l-1.8,2.2c2,1.8,4.5,2.8,7.1,2.8c3.6,0,6.1-1.9,6.1-5.1
						c0-2.9-1.8-4.2-5.5-5C72.2,9.9,71.4,9.4,71.4,8"/>
				</g>
			</g>
		</g>
	</g>
</g>
</svg>
