<?xml version="1.0" encoding="utf-8"?>
<!-- Generator: Adobe Illustrator 24.0.0, SVG Export Plug-In . SVG Version: 6.00 Build 0)  -->
<svg version="1.1" id="Layer_1" xmlns="http://www.w3.org/2000/svg" xmlns:xlink="http://www.w3.org/1999/xlink" x="0px" y="0px"
	 viewBox="0 0 350 142" style="enable-background:new 0 0 350 142;" xml:space="preserve">
<title>Group 4 Copy 7</title>
<desc>Created with Sketch.</desc>
<g id="Web">
	<g id="Group-4-Copy-7" transform="translate(545.000000, 5640.000000)">
		<g id="XMLID_1_">
			<path id="XMLID_18_" d="M-520.9-5584.2c-1.6-0.6-3.4-1-5.2-1c-2.1-0.2-3.9,0.5-5.5,1.8c-1.5,1.1-2.3,2.9-2.1,4.7
				c0,1,0.3,2.1,0.6,3.1c0.5,1,1.3,1.8,2.1,2.3c1,0.6,1.8,1.3,2.9,1.8l3.2,1.5l3.6,1.8c1.1,0.6,2.3,1.3,3.1,2.1
				c1,0.8,1.8,1.8,2.3,2.9c0.5,1.3,0.8,2.6,0.8,3.9c0.2,3.2-1.5,6.3-4.2,8.1c-2.8,1.9-6.5,2.9-10.7,2.9c-3.1-0.2-6.5-0.5-9.4-1.5
				l-0.2-0.2l1.3-9.1l1.3-0.2l1.8,7.6c1.8,0.8,3.9,1.1,5.8,1.1c2.3,0.2,4.4-0.5,6.2-1.8c1.5-1.3,2.3-3.1,2.3-5c0-1-0.2-2.1-0.6-3.1
				c-0.5-0.8-1.1-1.6-1.9-2.3c-1-0.6-1.8-1.1-2.8-1.6l-3.2-1.5c-1.3-0.5-2.4-1.1-3.7-1.8c-1.1-0.6-2.3-1.3-3.2-2.1
				c-1-0.8-1.8-1.8-2.3-3.1c-0.6-1.3-1-2.8-1-4.2c-0.2-3.1,1.5-5.8,4.1-7.5c3.1-1.8,6.5-2.8,10.1-2.6c3.1,0,6,0.3,8.9,1l0.2,0.2
				l-1.6,8.3l-1,0.2L-520.9-5584.2z"/>
			<path id="XMLID_15_" d="M-498.8-5579.2v21.9c0,1,0,1.9,0.2,2.9v2.3c-0.2,0.5,0.2,0.8,0.6,1l0,0l2.9,1v1.3h-13v-1.3l3.4-1
				c0.5-0.2,0.6-0.5,0.6-1v-2.3c0.2-1,0.2-1.9,0.2-2.9v-21.8c0-0.8,0-1.8-0.2-2.6v-1.9c0.2-0.5-0.2-0.8-0.6-1l-3.4-1.1v-1.1h13.2
				v1.1l-3.1,1c-0.5,0.2-0.6,0.5-0.6,0.8v2.1C-498.6-5580.8-498.8-5580-498.8-5579.2z M-498-5568l10.9-12.2l2.1-2.3
				c0.5-0.5,0.6-1,0.6-1.6c0-0.3-0.2-0.6-0.6-0.6l-2.1-0.6v-1.3h11.9v1.1l-2.8,1c-0.8,0.3-1.5,0.6-2.1,1.3l-1.9,1.9l-10.7,11.9
				l12.3,16.1c0.5,0.6,1,1.1,1.5,1.6s1.3,1,1.9,1l2.4,0.6v1.3h-9.4c-1.5-2.6-3.1-5-5-7.3L-498-5568z"/>
			<path id="XMLID_14_" d="M-458-5557.2c0,1,0,1.9,0.2,2.9v2.3c0,0.5,0.3,0.8,1,1l3.1,1v1.3h-13.3v-1.3l3.4-1c0.5-0.2,0.6-0.5,0.6-1
				v-2.3c0.2-1,0.2-1.9,0.2-2.9v-21.8c0-0.8,0-1.8-0.2-2.6v-1.9c0.2-0.5-0.2-0.8-0.6-1l-3.4-1.1v-1.1h13.3l0.2,1.1l-3.4,1
				c-0.5,0.2-0.6,0.5-0.6,0.8v2.1c-0.2,0.8-0.2,1.6-0.2,2.4L-458-5557.2z"/>
			<path id="XMLID_13_" d="M-437.6-5579v27.1c0.2,0.5,0.3,0.8,0.6,1l3.1,1v1.3h-11v-1.3l3.4-1c0.5-0.2,0.6-0.5,0.6-1v-31.5
				c-0.2-0.5-0.3-0.8-0.6-1l-3.2-1.1v-1.1h8l22.6,28.3v-20.6c0-1.8,0-3.2-0.2-4.5c-0.2-1.3-0.2-0.6-0.6-0.8l-3.2-1v-1.3h11v1.1
				l-3.4,1.1c-0.5,0.2-0.6,0.5-0.6,1v34.6l-2.3,0.2L-437.6-5579z"/>
			<path id="XMLID_12_" d="M-350.5-5586.5h19.3v0.2l-1.5,8.3l-1.1,0.2l-1.6-6.2h-12.3v14.6h8.6c0.5,0.2,0.8-0.2,1-0.6l0,0l1-3.6h1.5
				c-0.2,2.6-0.2,4.4-0.2,5.5c0,1.1,0,2.9,0.2,5.5h-1.5l-1-3.7c-0.2-0.5-0.5-0.6-0.8-0.6h-8.8v9.7c0,2.1,0,3.9,0.2,5.8h12.8l3.4-6.8
				l1.1-0.2l-0.5,9.4l-0.2,0.2h-26v-1.5l3.4-1c0.5-0.2,0.6-0.5,0.6-1v-31.5c0-0.5-0.3-0.8-0.6-1l-3.2-1.1v-1.1L-350.5-5586.5z"/>
			<path id="XMLID_11_" d="M-319.5-5579.2v21.9c0,2.1,0,3.9,0.2,5.8h13.2l3.4-7.1l1.3-0.2l-0.6,9.7v0.2h-26.5v-1.3l3.4-1
				c0.5-0.2,0.6-0.5,0.6-1v-2.3c0-1,0.2-1.9,0.2-2.9v-21.9c0-1-0.2-1.8-0.2-2.4v-1.9c0.2-0.5-0.2-0.8-0.6-1l-3.4-1.1v-1.1h13.3v1.1
				l-3.2,1c-0.5,0.2-0.6,0.5-0.6,0.8c0,0.6,0,1.5-0.2,2.8L-319.5-5579.2z"/>
			<path id="XMLID_10_" d="M-291.6-5557.1v5.4c0,0.5,0.3,0.6,1,1l3.1,1v1.3h-13.3v-1.3l3.2-1c0.5-0.2,0.6-0.5,0.6-1
				c0.2-0.8,0.2-1.5,0.2-2.3v-27.3c0-0.6,0-1.3-0.2-1.9c0.2-0.5-0.2-0.8-0.6-1l-3.4-1.1v-1.1h13.3v1.1l-3.4,1
				c-0.5,0.2-0.6,0.5-0.6,0.8L-291.6-5557.1L-291.6-5557.1z"/>
			<path id="XMLID_9_" d="M-285.3-5586.5h14.3v1.1l-2.4,0.6l-0.8,0.5c-0.2,0.2-0.2,0.5-0.2,0.6c0,0.5,0.2,1.1,0.5,1.5
				c0.3,0.6,0.6,1.3,1.1,1.8l5.8,8.8l4.9-7.8l1.3-2.1c0.5-0.6,0.8-1.3,1-2.1c0-0.5-0.5-1-1.1-1.1l-2.3-0.6v-1.3h12.2v1.1l-2.8,1
				c-0.6,0.2-1.1,0.5-1.6,1c-0.6,0.6-1.3,1.5-1.8,2.3l-8.1,12l10.6,15.6c0.5,0.8,1,1.6,1.8,2.3c0.5,0.3,1,0.5,1.5,0.6l2.6,0.6v1.3
				h-14.3v-1.3l2.3-0.6c0.5-0.2,0.6-0.2,0.8-0.5c0.2-0.2,0.3-0.5,0.3-0.6c0-0.5-0.2-1-0.5-1.5c-0.5-0.6-0.8-1.3-1.3-1.8l-7.3-10.7
				l-6.2,9.9l-1.5,2.3c-0.5,0.5-0.6,1.1-0.6,1.8c0,0.2,0.2,0.5,0.2,0.6c0.2,0.2,0.5,0.5,0.8,0.5l2.4,0.6v1.3h-12.2v-1.3l2.6-0.8
				c0.6-0.2,1.3-0.5,1.8-1l1.5-1.9l9.6-14.5l-9.3-13.8l-1.5-1.8c-0.5-0.5-1-0.6-1.6-0.8l-2.4-0.8L-285.3-5586.5z"/>
			<path id="XMLID_8_" d="M-238.2-5557.1v2.9c0,0.8,0,1.5,0.2,2.3c0,0.5,0.3,0.6,1,1l3.1,1v1.3h-13.3v-1.3l3.4-1
				c0.5-0.2,0.6-0.5,0.6-1v-31.5c0.2-0.5-0.2-0.8-0.6-1l0,0l-3.2-1.1v-1.1h13.3v1.1l-3.2,1c-0.5,0.2-0.6,0.5-0.6,0.8
				c-0.2,0.6-0.2,1.3-0.2,2.1L-238.2-5557.1L-238.2-5557.1z"/>
			<path id="XMLID_5_" d="M-223.1-5557.1v2.9c0.2,0.8,0.2,1.5,0.2,2.3c-0.2,0.5,0.2,1,0.6,1.1l2.9,0.8v1.3h-13v-1.3l3.4-1
				c0.5-0.2,0.6-0.5,0.6-1v-2.3c0-1,0.2-1.9,0.2-2.9v-21.9c0-1-0.2-1.8-0.2-2.4v-1.9c0.2-0.5-0.2-0.8-0.6-1l-3.4-1.1v-1.1h14.8
				c4.1,0,7.3,0.6,9.3,2.3c2.1,1.6,3.1,4.2,3.1,6.8c0.2,2.3-0.6,4.5-2.1,6.5c-1.8,1.8-3.9,3.2-6.5,3.9l3.1,5c1,1.6,1.8,3.1,2.6,4.4
				c0.8,1.3,1.6,2.6,2.3,3.6c0.6,1,1.3,1.8,1.9,2.4l1,0.8l1,0.5l1,0.5l1.3,0.3v1.3l-3.2,0.2h-1.9c-0.5,0-1-0.2-1.5-0.3l-1.3-0.5
				l-1-0.6c-0.8-0.6-1.5-1.5-2.1-2.4c-0.8-1.1-1.5-2.3-2.3-3.6l-2.4-4.2c-0.8-1.5-1.8-2.9-2.6-4.5l-0.6-1l-0.6-0.5
				c-0.2-0.2-0.5-0.3-0.8-0.3h-3.1L-223.1-5557.1z M-223.1-5568.4h3.1c3.1,0,5.4-0.6,6.8-1.9c1.5-1.3,2.1-3.4,2.1-6.2
				c0-2.8-0.6-4.7-2.1-6c-1.5-1.3-3.6-1.8-6.5-1.8h-1.5l-1.9,0.2V-5568.4z"/>
			<path id="XMLID_2_" d="M-401.4-5549h37.8v-37.7h-37.8V-5549L-401.4-5549z M-378.1-5581.9v9.1h9.9v9.4h-9.9v9.7h-9.4v-9.7h-9.1
				v-9.4h9.1v-9.1H-378.1z"/>
		</g>
	</g>
</g>
</svg>
