<?xml version="1.0" encoding="utf-8"?>
<!-- Generator: Adobe Illustrator 24.0.0, SVG Export Plug-In . SVG Version: 6.00 Build 0)  -->
<svg version="1.1" id="图层_1" xmlns="http://www.w3.org/2000/svg" xmlns:xlink="http://www.w3.org/1999/xlink" x="0px" y="0px"
	 viewBox="0 0 350 142" style="enable-background:new 0 0 350 142;" xml:space="preserve">
<title>Group 4</title>
<desc>Created with Sketch.</desc>
<g id="Web">
	<g id="About-us" transform="translate(-165.000000, -5640.000000)">
		<g id="Group-4" transform="translate(165.000000, 5640.000000)">
			<g id="postfinance-seeklogo.com" transform="translate(89.000000, 56.000000)">
				
					<g id="g10" transform="translate(86.000000, 15.525000) scale(-1, 1) rotate(-180.000000) translate(-86.000000, -15.525000) translate(0.000000, 0.525000)">
					<g id="g12">
						<g id="g14">
							<g id="g16-Clipped">
								<g id="g16">
									<path id="path26" d="M237.6,25.8c0,0,4,18.1,4,18.3h-25.2c0-0.1-5.2-24.1-5.2-24.2c0.1,0,6.4,0,6.4,0c0.1,0,4,18.1,4,18.1
										h12.2c0,0-3.8-18.1-4-18.3c0.1,0,18.6,0,18.6,0L246,8.6c0,0-18.4,0-18.5,0c0-0.1-3.7-17.1-3.7-17.1s-13.8,0-14,0
										c0-0.1-1.2-6.1-1.3-6.2h20.6c0,0.1,3.7,17.1,3.7,17.1s18.4,0,18.5,0c0,0.1,4.9,23.2,4.9,23.3H237.6"/>
									<path id="path28" d="M192.1,20.5c2.7,0,4.5-1.8,4.5-4.8c0-0.5-0.1-1-0.1-1.5h-11.5C186.1,18,188.7,20.5,192.1,20.5z
										 M197.8-2l1.5,6.7c-2.5-0.8-4.9-1.5-8-1.5c-3.6,0-6.8,1.2-7,5.6h18.7c0.7,2.2,1.1,4.4,1.1,6.4c0,6.2-3.6,11.3-11.4,11.3
										c-10.1,0-16.2-8.3-16.2-17.4c0-7.8,5.2-12.4,13.3-12.4C193-3.2,195.6-2.7,197.8-2L197.8-2L197.8-2z M167.1,3.7
										c-3.7,0-6.2,1.6-6.2,6.2c0,5.4,3.4,9.8,8.8,9.8c1.7,0,3.6-0.5,5.5-1.2l1.4,6.4c-2.2,0.8-4.8,1.4-7.4,1.4
										c-8.9,0-16.4-6.6-16.4-16.8c0-8.4,5.1-12.3,12.5-12.3c2.5,0,4.6,0.5,6.1,1.1l1.5,6.6C171.1,4.2,169.3,3.7,167.1,3.7
										L167.1,3.7L167.1,3.7z M128-2.4l3.1,14.3c1.2,5.8,4.1,7.7,7,7.7c3.8,0,4.2-2.8,3.5-6l-3.4-16h8.1l3.6,16.4
										c1.8,8.2-2,12.5-8,12.5c-3.3,0-6.4-1.3-9.2-4.2l0.7,3.3H126l-6-28H128L128-2.4z M99,5.7c0,2.8,2.5,4.4,6.6,4.4
										c0.8,0,2.5-0.1,4.1-0.3l-0.3-1.6c-1-3.3-3.7-5.6-6.9-5.6C100.1,2.7,99,3.8,99,5.7L99,5.7z M106.8,26.4
										c-3.7,0-7.5-0.8-8.8-1.2l-1.4-6.5c1.8,0.5,5.4,1.5,8.5,1.5c4.2,0,5.8-1.3,5.8-3.5c0-0.4,0-0.8-0.1-1.3l-0.1-0.6
										c-2,0.2-4,0.4-4.9,0.4c-8,0-14.5-3.1-14.5-10.5c0-4.8,3.7-7.7,8.6-7.7c3.4,0,6.4,1.4,8.3,3.6l-0.6-2.9h7.2l3.5,16.1
										c0.3,1.2,0.4,2.4,0.4,3.6C118.7,22.1,116.1,26.4,106.8,26.4L106.8,26.4L106.8,26.4z M67.6-2.4l3.1,14.3
										c1.2,5.8,4.1,7.7,7,7.7c3.8,0,4.2-2.8,3.5-6l-3.4-16h8.1L89.5,14c1.8,8.2-2,12.5-8,12.5c-3.3,0-6.4-1.3-9.2-4.2l0.7,3.3
										h-7.5l-6-28H67.6L67.6-2.4z M53.1,33.4c-0.2-2.5,1.7-4.5,4.2-4.5c2.8,0,4.7,2,4.9,4.5c0.2,2.5-1.7,4.5-4.2,4.5
										C55.3,37.9,53.3,36,53.1,33.4L53.1,33.4z M52,25.7l-6-28h8l6,28H52z M29.2-2.4l3.2,14.6h12.2l1.5,7.2H33.8l1.9,9h12.8
										l1.6,7.2H28.9l-8-38H29.2z M21.2,19.5l1.3,6.2h-8.6l1.7,7.8l-8.4-1.9l-5.3-24c-1.5-6.8,2.3-10.5,9-10.5
										c1.4,0,3.8,0.3,5.5,0.8l1.4,6.2c-1.4-0.3-3.1-0.7-4.5-0.7c-2.3,0-4,0.8-3.4,3.6l2.7,12.4H21.2z M-9.5,5.9
										c0-2.3-2.8-2.7-5.1-2.7c-2.9,0-6.2,0.8-8,1.4l-1.4-6.3c2.5-0.6,5.8-1.1,8.8-1.1c7.2,0,13.1,2.7,13.1,9.5
										c0,8.8-10.5,7.2-10.5,11.1c0,1.8,1.7,2.4,4.4,2.4c2.5,0,6.1-1,7.3-1.4l1.4,6.4c-2.4,0.7-5.3,1.1-7.9,1.1
										c-7.9,0-12.6-3.5-12.6-9.3C-20,8.4-9.5,9.8-9.5,5.9L-9.5,5.9L-9.5,5.9z M-39.9-3.2c8.9,0,14.9,6.4,16.2,14.9
										c1.4,8.4-3.3,14.9-12.2,14.9c-8.9,0-14.9-6.4-16.2-14.9C-53.4,3.2-48.7-3.2-39.9-3.2L-39.9-3.2L-39.9-3.2z M-39.1,3.3
										c-3.2,0-5.8,2.5-4.6,8.4c1.2,5.8,4,8.4,7.2,8.4c3.2,0,5.8-2.6,4.5-8.4C-33.1,5.9-35.9,3.3-39.1,3.3L-39.1,3.3z M-73.2,9.2
										h3.6c11.4,0,17.7,5.6,17.7,14.9c0,7-4.9,11.5-13.3,11.5h-10.5l-8-38h8.1L-73.2,9.2L-73.2,9.2z M-71.8,16.2l2.7,12.5h3.4
										c3.7,0,5.5-1.5,5.5-5.1c0-4.6-2.9-7.4-8.2-7.4H-71.8"/>
								</g>
							</g>
						</g>
					</g>
				</g>
			</g>
		</g>
	</g>
</g>
</svg>
