<?xml version="1.0" encoding="utf-8"?>
<!-- Generator: Adobe Illustrator 24.0.0, SVG Export Plug-In . SVG Version: 6.00 Build 0)  -->
<svg version="1.1" id="图层_1" xmlns="http://www.w3.org/2000/svg" xmlns:xlink="http://www.w3.org/1999/xlink" x="0px" y="0px"
	 viewBox="0 0 350 142" style="enable-background:new 0 0 350 142;" xml:space="preserve">
<g id="Web">
	<g id="About-us" transform="translate(-165.000000, -6064.000000)">
		<g id="Group-4-Copy-4" transform="translate(165.000000, 6064.000000)">
			<g id="FIBA-3x3-World-Tour-1" transform="translate(135.000000, 39.000000)">
				<path id="Shape" d="M25.6,5.7C26.7,5.2,31,3.6,33.4,6l0,0l0.1,0.1c0,0.1,0.2,0.2,0.3,0.4c-3.1,0.6-5.9,1.4-8.5,2.4
					c-2.8,1.1-5.4,2.6-7.6,4.2C19.8,10.3,22.5,7.8,25.6,5.7 M42.5,0.2v5.4c-1.6,0.1-3.2,0.2-4.7,0.3c-0.5-1.4-1.2-2.2-1.5-2.4
					c-0.8-0.8-1.6-1.3-2.5-1.7C36.5,0.9,39.4,0.4,42.5,0.2 M46.4,0.2c3,0.2,5.9,0.7,8.6,1.6c-0.9,0.4-1.8,0.9-2.6,1.7
					c-0.3,0.2-1,1-1.4,2.3c-1.5-0.1-3-0.2-4.6-0.3V0.2z M55.2,6.1L55.2,6.1c2.9-2.9,8.2-0.2,8.3-0.2l0,0c2.9,1.9,5.4,4.3,7.5,7
					c-2.1-1.6-4.5-2.9-7.1-4c-2.7-1.1-5.7-1.9-8.9-2.5C55.1,6.2,55.2,6.1,55.2,6.1 M11.2,16.4h8.4c2.1-1.7,4.6-3.1,7.4-4.3
					c2.2-0.9,4.7-1.6,7.3-2.1c-0.1,1.4-0.4,3-2.3,6.3h4.4c1.7-3.4,1.8-5.1,1.9-6.9c1.4-0.1,2.8-0.2,4.2-0.3v7.2h3.9V9.2
					c1.4,0,2.8,0.1,4.1,0.2c0,1.8,0.1,3.5,1.9,7h4.4c-2-3.4-2.2-5.1-2.3-6.4c2.8,0.5,5.3,1.2,7.7,2.2c2.7,1.1,5.2,2.6,7.3,4.3h8.2
					C72,4.7,59.2-3.5,44.4-3.5c-7.8,0-15,2.3-20.9,6.1c-0.1,0.1-0.2,0.1-0.2,0.1l0,0C18.1,6.2,13.9,10.9,11.2,16.4"/>
				<polygon id="Path" points="29.9,38.6 20.8,46.6 17.7,46.6 15.6,55.2 26.5,55.2 35.6,47.3 				"/>
				<polygon id="Path_1_" points="52.7,18.7 43.3,26.6 49.1,35.3 58.6,27.3 62.2,27.3 64.4,18.7 				"/>
				<polygon id="Path_2_" points="54.2,47.3 35.7,17.6 24.4,17.5 22.3,26.6 25.8,26.6 44.3,56.3 55.6,56.3 57.7,47.3 				"/>
				<polygon id="Path_3_" points="2,24.1 -0.1,32.6 3.7,37.2 -2.2,41.9 -4.3,50.8 0.3,56.3 12.7,56.3 14.8,47.6 10.3,47.6 11.6,42 
					17.5,42 19.7,32.7 13.7,32.7 15,27.5 19,27.5 21.2,18.7 9.2,18.7 				"/>
				<polygon id="Path_4_" points="65.6,27.4 70.1,27.4 68.8,32.5 63.1,32.5 60.9,41.8 66.7,41.8 65.4,47.5 60.9,47.5 58.8,56.3 
					71.1,56.3 78.2,50.9 80.3,41.8 76.5,37.3 82.3,32.6 84.3,24.2 79.8,18.7 67.7,18.7 				"/>
				<polygon id="Path_5_" points="8.7,61.9 7.3,66.9 7.4,61.9 5.3,61.9 3.8,66.9 4,61.9 2.4,61.9 2.3,68.5 4.5,68.5 6,63.4 6,68.5 
					8,68.5 10.1,61.9 				"/>
				<path id="Shape_1_" d="M12.8,67l0.5-3.6l0.2-0.2h1.4l0.2,0.2L14.6,67l-0.2,0.2H13L12.8,67z M12.8,61.9l-0.8,1l-0.7,4.7l0.8,1
					h3.1l0.8-1l0.7-4.7l-0.8-1H12.8z"/>
				<path id="Shape_2_" d="M21.3,63h1.5l0.2,0.2l-0.2,1.4l-0.2,0.2H21L21.3,63z M20,61.9l-1,6.6h1.5l0.4-2.5H22l0.4,2.5h1.5l0.2-1.3
					h-0.4l-0.3-1.5l0.8-1l0.3-2l-0.8-0.9H20L20,61.9z"/>
				<polygon id="Path_6_" points="25.7,61.9 24.5,68.5 28.7,68.5 28.9,67.2 26.5,67.2 27.4,61.9 				"/>
				<path id="Shape_3_" d="M33.4,63.1h1.4l0.2,0.2L34.6,67l-0.2,0.2h-1.5L33.4,63.1z M32.1,61.9l-1,6.6h4l0.8-1l0.7-4.7l-0.8-1H32.1
					L32.1,61.9z"/>
				<polygon id="Path_7_" points="42.4,61.9 42.2,63.2 43.6,63.2 42.9,68.5 44.3,68.5 45,63.2 46.4,63.2 46.6,61.9 				"/>
				<path id="Shape_4_" d="M49.3,67l0.5-3.6l0.2-0.2h1.4l0.2,0.2L51.1,67l-0.2,0.2h-1.4L49.3,67z M49.3,61.9l-0.8,1l-0.7,4.7l0.8,1
					h3.2l0.8-1l0.7-4.7l-0.8-1H49.3z"/>
				<polygon id="Path_8_" points="59.6,61.9 58.8,66.9 58.6,67.2 57.3,67.2 57.1,66.9 57.9,61.9 56.4,61.9 55.5,67.5 56.3,68.5 
					59.4,68.5 60.2,67.5 61,61.9 				"/>
				<path id="Shape_5_" d="M65.6,63h1.5l0.2,0.2L67,64.6l-0.2,0.2h-1.5L65.6,63z M64.3,61.9l-1,6.6h1.5l0.4-2.5h1.2l0.4,2.5h1.5
					l0.2-1.3h-0.4l-0.3-1.5l0.8-1l0.3-2L68,61.9H64.3L64.3,61.9z"/>
			</g>
		</g>
	</g>
</g>
</svg>
