<?xml version="1.0" encoding="utf-8"?>
<!-- Generator: Adobe Illustrator 24.0.0, SVG Export Plug-In . SVG Version: 6.00 Build 0)  -->
<svg version="1.1" id="图层_1" xmlns="http://www.w3.org/2000/svg" xmlns:xlink="http://www.w3.org/1999/xlink" x="0px" y="0px"
	 viewBox="0 0 350 142" style="enable-background:new 0 0 350 142;" xml:space="preserve">
<style type="text/css">
	.st0{fill-rule:evenodd;clip-rule:evenodd;}
	.st1{stroke:#020203;stroke-width:2.779;stroke-linecap:round;stroke-linejoin:round;}
</style>
<title>Group 4 Copy 10</title>
<desc>Created with Sketch.</desc>
<g id="Web">
	<g id="About-us" transform="translate(-545.000000, -6276.000000)">
		<g id="Group-4-Copy-10" transform="translate(545.000000, 6276.000000)">
			<g id="Group-27" transform="translate(85.000000, 50.000000)">
				<path id="Fill-1" class="st0" d="M11.1,8.2c-6.6,0-11.1,5.7-11.1,12.9c0,2.9,0.8,6.1,2.6,8.4c2.1,2.7,5.4,4.2,8.7,4.2
					c3.2,0,6.7-1.1,8.8-4.2c1.5-2.2,5.1,0.3,3.1,2.8c-3,3.8-7.5,5.7-12,5.7c-4.5,0-9.1-2-12.2-5.7c-2.5-3.3-3.8-7.8-3.6-12.5
					C-3.9,10.4,2.4,4,11.6,4c4.4,0,7.9,1.5,11.1,5.4c1.8,2.1-1.5,4.8-3.2,2.7C17.2,9.3,14.1,8.2,11.1,8.2"/>
				<path id="Fill-3" class="st0" d="M53.4,22.4v-4.8c0-6-4.2-9.1-9.8-9.4c-4.4-0.1-8.8,2.3-10.5,6.5c-0.6,1.3-0.9,2.9-0.9,4.5
					c-0.1,4,1.2,7.6,4.5,10.4c1.8,1.4,4.1,2.1,6.3,2.3C48.7,31.9,53.1,28.5,53.4,22.4L53.4,22.4z M37.1,5.2c2-0.9,4.2-1.2,6.6-1.2
					c3.5,0.1,7.5,1.2,9.7,4.8V6.4c0-1.3,0.8-2.2,2.2-2.2c1.4,0,2.3,0.9,2.3,2.2v27c0,1.3-0.9,2.2-2.3,2.2c-1.4,0-2.2-0.9-2.2-2.2
					v-2.9c-1.8,3.5-6.3,5.5-10,5.5c-3,0-6.3-0.8-8.9-2.6c-4.7-3.2-7.1-8.3-6.9-14.3C27.8,13,31.2,7.4,37.1,5.2L37.1,5.2z"/>
				<path id="Fill-5" class="st0" d="M69.6,9.3C71.5,5.1,75,4,78.3,4c1.3,0,2.2,0.8,2.2,2.2c0,1.4-0.9,2.1-2.2,2.1
					c-6,0-8.6,5.1-8.6,11.5v14.1c0,1.3-1,2.2-2.1,2.2c-1.3,0-2.2-0.9-2.2-2.2V6.2c0-2.8,4.2-3,4.2,0V9.3z"/>
				<path id="Fill-7" class="st0" d="M110.1,17.4c0-5.7-4.6-9.7-9.6-9.7c-6,0-11.6,4.2-11.6,10.7v15.5c0,1.4-0.8,2.2-2.2,2.2
					c-1.4,0-2.3-0.9-2.3-2.2V-3.5c0-2.7,4.6-2.6,4.6,0V9.6c2.2-4.4,7-6.2,11.7-6.2c7.2,0,14,5,14,14v16.5c0,1.4-0.8,2.2-2.2,2.2
					c-1.4,0-2.3-0.9-2.3-2.2V17.4z"/>
				<path id="Fill-9" class="st0" d="M126.5,19h23.4c-0.4-5.2-3.7-9.2-8.5-10.4h0.1c-2-0.6-4.6-0.6-6.7,0.1
					C129.8,10,126.9,14.1,126.5,19L126.5,19z M142.7,4.6c7,1.9,11.3,7.5,11.5,15.4V20c0.1,1.4-0.5,2.8-3,2.8h-24.5
					c0.8,5,5.1,9.2,11.3,9.2c2.8,0,5.8-0.7,8.2-2.6c2.2-2,5.4,0.6,3,3c-2.8,2.6-7,3.7-11,3.7c-4.8,0-9.7-1.8-12.6-5.5
					c-6.7-8.7-3.8-22.8,7.7-26C136.3,3.8,139.6,3.8,142.7,4.6L142.7,4.6z"/>
				<path id="Fill-11" class="st0" d="M163.7,34c0,1.2-0.8,2.1-1.9,2.1c-1.1,0-1.9-0.9-1.9-2.1V-3.3c0-1.2,0.8-2.1,1.9-2.1
					c1,0,1.9,0.9,1.9,2.1V34z"/>
				<path id="Fill-13" class="st0" d="M175.7,18V23c0,5.5,4.2,9.4,9.8,9.6c4.4,0,8.7-2.4,10.5-6.7c0.5-1.3,0.9-3,0.9-4.6
					c0.1-4.1-1.2-7.8-4.6-10.6c-1.8-1.4-4-2.2-6.3-2.4C180.5,8.3,175.7,11.9,175.7,18 M185.7,36.9c-4.1,0-8.1-1.7-10-5v13.4
					c0,2.9-4.5,2.9-4.5,0V6.6c0-1.4,0.9-2.2,2.3-2.2c1.4,0,2.1,0.8,2.1,2.2v2.9C177.7,5.6,182,4,185.7,4c1.9,0,4,0.4,5.9,1.2
					l-0.1-0.1c6.7,2.8,10.1,9,9.9,16.2C201.2,30.2,194.9,36.9,185.7,36.9"/>
				<path id="Fill-15" class="st0" d="M211.5,19h23.4c-0.4-5.2-3.7-9.2-8.5-10.4h0.1c-2-0.6-4.6-0.6-6.7,0.1
					C214.8,10,211.9,14.1,211.5,19L211.5,19z M227.7,4.6c7,1.9,11.3,7.5,11.5,15.4V20c0.1,1.4-0.5,2.8-3,2.8h-24.5
					c0.8,5,5.1,9.2,11.3,9.2c2.8,0,5.8-0.7,8.2-2.6c2.2-2,5.4,0.6,3,3c-2.8,2.6-7,3.7-11,3.7c-4.8,0-9.7-1.8-12.6-5.5
					c-6.7-8.7-3.8-22.8,7.7-26C221.3,3.8,224.7,3.8,227.7,4.6L227.7,4.6z"/>
				<path id="Fill-17" class="st0" d="M249,9.3c1.9-4.2,5.4-5.3,8.7-5.3c1.3,0,2.2,0.8,2.2,2.2c0,1.4-0.9,2.1-2.2,2.1
					c-6,0-8.6,5.1-8.6,11.5v14.1c0,1.3-1,2.2-2.1,2.2c-1.3,0-2.2-0.9-2.2-2.2V6.2c0-2.8,4.2-3,4.2,0V9.3z"/>
				<path id="Fill-19" class="st0" d="M-46.9,41.6c-15.2,0-27.5-12.3-27.5-27.4s12.3-27.4,27.5-27.4s27.5,12.3,27.5,27.4
					S-31.7,41.6-46.9,41.6 M-46.9-18.7C-65.2-18.7-80-4-80,14.2c0,7.6,2.6,14.5,6.9,20.1c6,7.8,26.7,26.4,26.7,26.4
					S-27,42.1-20.9,34.5c4.4-5.6,7-12.6,7-20.3C-13.9-4-28.7-18.7-46.9-18.7"/>
				<path id="Stroke-21" class="st1" d="M-46.9,41.6c-15.2,0-27.5-12.3-27.5-27.4s12.3-27.4,27.5-27.4s27.5,12.3,27.5,27.4
					S-31.7,41.6-46.9,41.6z M-46.9-18.7C-65.2-18.7-80-4-80,14.2c0,7.6,2.6,14.5,6.9,20.1c6,7.8,26.7,26.4,26.7,26.4
					S-27,42.1-20.9,34.5c4.4-5.6,7-12.6,7-20.3C-13.9-4-28.7-18.7-46.9-18.7z"/>
				<path id="Fill-23" class="st0" d="M-60.2,11.6c-0.5,0-0.9,0.4-0.9,0.9c0,0.5,0.4,0.9,0.9,0.9s0.9-0.4,0.9-0.9
					C-59.2,12-59.6,11.6-60.2,11.6"/>
				<path id="Fill-25" class="st0" d="M-31.5,13.5c-0.4,0-0.7-0.3-0.7-0.7c0-0.7-0.6-1.3-1.3-1.3c-0.7,0-1.3,0.6-1.3,1.3
					c0,0.4-0.3,0.7-0.7,0.7c-0.4,0-0.7-0.3-0.7-0.7c0-1.5,1.2-2.7,2.6-2.7c1.4,0,2.6,1.2,2.6,2.7C-30.8,13.2-31.1,13.5-31.5,13.5
					 M-37.3,15.9c-3.5,2-6.8,2.6-9.7,2.6c-5.7,0-9.5-2.6-9.6-2.7c-0.3-0.2-0.4-0.6-0.2-1c0.2-0.3,0.6-0.4,0.9-0.2
					c0.3,0.2,8.1,5.5,17.8,0c0.3-0.2,0.7-0.1,0.9,0.3C-36.9,15.3-37,15.7-37.3,15.9 M-60.5,15.5c-1.4,0-2.6-1.2-2.6-2.7
					c0-1.5,1.2-2.7,2.6-2.7c1.4,0,2.6,1.2,2.6,2.7C-57.9,14.3-59.1,15.5-60.5,15.5 M-27.8,12.2c-0.4-1-1.3-2.4-3-4.5
					c1.2-0.6,2.5-1.7,2.5-2.9c0-1.3-1.8-1.9-3.5-1.9c-0.9,0-1.5,0.2-1.8,0.5C-33.8,3.6-33.9,3.8-34,4c-1.8-2-3.2-3.5-3.2-3.5
					c-0.1-0.1-0.3-0.2-0.5-0.2h-17.9c-0.2,0-0.3,0.1-0.5,0.2c0,0-1.6,1.6-3.5,3.6c-0.1-0.2-0.3-0.5-0.5-0.7C-60.4,3-61,2.9-61.9,2.9
					c-1.7,0-3.5,0.6-3.5,1.9c0,1.3,1.3,2.4,2.5,3c-1.6,1.9-2.6,3.4-3.1,4.5c-0.9,2.2-0.9,5.2-0.9,7c0,0.3,0,0.5,0,0.7
					c0,1.3,0.9,2.2,1.5,2.5V26c0,0.4,0.3,0.7,0.7,0.7h6.5c0.4,0,0.7-0.3,0.7-0.7v-1.7h21.2V26c0,0.4,0.3,0.7,0.7,0.7h6.2
					c0.4,0,0.7-0.3,0.7-0.7v-3.8l1.3-1.9c0.1-0.1,0.1-0.2,0.1-0.3C-27.2,19.7-26.8,14.8-27.8,12.2"/>
			</g>
		</g>
	</g>
</g>
</svg>
