<?xml version="1.0" encoding="utf-8"?>
<!-- Generator: Adobe Illustrator 24.0.0, SVG Export Plug-In . SVG Version: 6.00 Build 0)  -->
<svg version="1.1" id="图层_1" xmlns="http://www.w3.org/2000/svg" xmlns:xlink="http://www.w3.org/1999/xlink" x="0px" y="0px"
	 viewBox="0 0 350 142" style="enable-background:new 0 0 350 142;" xml:space="preserve">
<style type="text/css">
	.st0{fill:#161616;}
</style>
<title>Group 4 Copy 5</title>
<desc>Created with Sketch.</desc>
<path id="Web" class="st0" d="M182.6,52.7c0,0.8-0.6,1.4-1.5,1.4h-2.2v13.8h7.6l0.6-2.9c0.1-0.7,0.8-1.2,1.5-1.2
	c0.9,0,1.6,0.8,1.4,1.7l-0.7,4c-0.1,0.7-0.8,1.2-1.5,1.2h-13.9c-0.8,0-1.4-0.6-1.4-1.4c0-0.8,0.6-1.4,1.4-1.4h2V54.1h-2
	c-0.8,0-1.4-0.6-1.4-1.4c0-0.8,0.6-1.4,1.4-1.4h7.2C182,51.3,182.6,51.9,182.6,52.7 M194.1,62h6.3c-0.3-1.4-1.6-2.3-3.1-2.3
	C195.8,59.7,194.5,60.7,194.1,62 M202.1,65.9c0.7,0,1.3,0.6,1.3,1.4c0,0.6-0.5,1.3-0.8,1.7c-1.4,1.5-3.4,2.1-5.1,2.1
	c-4.1,0-6.8-3.1-6.8-6.9c0-4.1,2.8-7,6.6-7c3.9,0,6.2,3.3,6.2,6c0,0.8-0.4,1.5-1.6,1.5h-8.1c0,1.6,1.4,3.6,3.6,3.6
	c1.4,0,2.7-0.6,3.5-1.7C201.2,66,201.6,65.9,202.1,65.9 M213.7,54.1h-2.6c-0.8,0-1.4-0.6-1.4-1.4c0-0.8,0.6-1.4,1.4-1.4h4.1
	c0.8,0,1.4,0.6,1.4,1.4V68h2.6c0.8,0,1.4,0.6,1.4,1.3c0,0.8-0.6,1.4-1.4,1.4h-8.1c-0.8,0-1.4-0.6-1.4-1.4c0-0.7,0.6-1.3,1.4-1.3h2.6
	L213.7,54.1L213.7,54.1z M227,51c1.3,0,2.4,1.1,2.4,2.5c0,1.4-1.1,2.5-2.4,2.5c-1.4,0-2.4-1.1-2.4-2.5C224.6,52.1,225.6,51,227,51
	 M225.8,60.2h-2.6c-0.8,0-1.4-0.6-1.4-1.4c0-0.8,0.6-1.4,1.4-1.4h4.1c0.8,0,1.4,0.6,1.4,1.4V68h2.6c0.8,0,1.4,0.6,1.4,1.3
	c0,0.8-0.6,1.4-1.4,1.4h-8.1c-0.8,0-1.4-0.6-1.4-1.4c0-0.7,0.6-1.3,1.4-1.3h2.6L225.8,60.2L225.8,60.2z M237.8,70l-4.3-9.8h-0.9
	c-0.8,0-1.4-0.6-1.4-1.4c0-0.8,0.6-1.4,1.4-1.4h5.2c0.8,0,1.4,0.6,1.4,1.4c0,0.7-0.7,1.4-1.4,1.4h-1.1l2.9,6.9l2.8-6.9h-1.1
	c-0.8,0-1.4-0.6-1.4-1.4c0-0.8,0.7-1.4,1.4-1.4h5c0.8,0,1.4,0.6,1.4,1.4c0,0.7-0.6,1.4-1.4,1.4h-0.9l-4.3,9.8c-0.3,0.7-1,1-1.7,1
	C238.7,71.1,238.1,70.7,237.8,70 M254.3,68h2.3c0.8,0,1.4,0.6,1.4,1.3c0,0.8-0.6,1.4-1.4,1.4H250c-0.8,0-1.4-0.6-1.4-1.4
	c0-0.7,0.6-1.3,1.4-1.3h1.4v-7.8h-1.5c-0.8,0-1.4-0.6-1.4-1.4c0-0.8,0.6-1.4,1.4-1.4h2.9c0.8,0,1.4,0.6,1.4,1.4v0.3
	c0.9-1.2,2.3-2,4-2c2.2,0,3.3,1.5,3.3,3c0,1.6-1.2,2.4-2.3,2.4c-1.1,0-2.3-0.7-2.3-2c0-0.3,0.1-0.6,0.2-0.9
	c-1.3,0.1-2.9,1.1-2.9,4.9C254.3,64.5,254.3,68,254.3,68z M265.3,62h6.3c-0.3-1.4-1.6-2.3-3.1-2.3C267,59.7,265.8,60.7,265.3,62
	 M273.4,65.9c0.7,0,1.3,0.6,1.3,1.4c0,0.6-0.5,1.3-0.8,1.7c-1.4,1.5-3.4,2.1-5.1,2.1c-4.1,0-6.8-3.1-6.8-6.9c0-4.1,2.8-7,6.6-7
	c3.9,0,6.2,3.3,6.2,6c0,0.8-0.4,1.5-1.6,1.5h-8.1c0,1.6,1.4,3.6,3.6,3.6c1.4,0,2.7-0.6,3.5-1.7C272.5,66,272.9,65.9,273.4,65.9
	 M178.9,97.2c-2.7,0-4.1-1.2-4.8-2.1v1.4c0,0.4-0.3,0.7-0.7,0.7c-0.4,0-0.7-0.3-0.7-0.7v-3.7c0-0.4,0.2-0.7,0.7-0.7
	c0.2,0,0.5,0.1,0.7,0.5c0.2,0.5,1.3,3.4,4.9,3.4c2.4,0,3.4-1.3,3.4-2.6c0-2.8-4.6-2.2-7.2-3.2c-1.2-0.4-2.2-1.3-2.2-3
	c0-2.1,1.7-3.6,4.3-3.6c1.7,0,3.2,0.5,4.2,1.9v-1.1c0-0.4,0.3-0.7,0.7-0.7c0.4,0,0.7,0.3,0.7,0.7v2.9c0,0.4-0.2,0.8-0.7,0.8
	c-0.4,0-0.6-0.3-0.7-0.5c-0.2-0.5-1.4-2.7-4.2-2.7c-1.8,0-2.9,0.9-2.9,2.3c0,0.9,0.4,1.5,1.2,1.8c2.3,1,8.2,0.1,8.2,4.4
	C183.8,95.6,181.9,97.2,178.9,97.2 M197.5,95.5h2.4c0.4,0,0.7,0.3,0.7,0.7c0,0.4-0.3,0.7-0.7,0.7h-3.2c-0.4,0-0.7-0.3-0.7-0.7v-1.9
	c-1.1,2-2.9,2.9-4.8,2.9c-2.5,0-4-1.5-4-4.7v-7.2h-2.4c-0.4,0-0.7-0.3-0.7-0.7c0-0.4,0.3-0.7,0.7-0.7h3.2c0.4,0,0.7,0.3,0.7,0.7v8
	c0,2.6,1.4,3.2,2.7,3.2c2.4,0,4.7-2.1,4.7-5.8v-4.8h-2.4c-0.4,0-0.7-0.3-0.7-0.7c0-0.4,0.3-0.7,0.7-0.7h3.2c0.4,0,0.7,0.3,0.7,0.7
	L197.5,95.5L197.5,95.5z M214.5,86.4c0,1.1-0.7,1.9-1.6,1.9c-0.9,0-1.5-0.6-1.5-1.5c0-0.7,0.4-1.3,1-1.5c-0.4-0.3-1.2-0.5-1.9-0.5
	c-2.1,0-4.2,1.9-4.2,5.3v5.4h3.5c0.4,0,0.7,0.3,0.7,0.7c0,0.4-0.3,0.7-0.7,0.7h-7.4c-0.4,0-0.7-0.3-0.7-0.7c0-0.4,0.3-0.7,0.7-0.7
	h2.4V85.2h-2.4c-0.4,0-0.7-0.3-0.7-0.7c0-0.4,0.3-0.7,0.7-0.7h3.1c0.4,0,0.7,0.3,0.7,0.7v1.8c0.7-1.5,2.4-2.8,4.5-2.8
	C212.5,83.6,214.5,84.4,214.5,86.4 M222.4,93.1l3.5-14.2h-2.8c-0.4,0-0.7-0.3-0.7-0.7c0-0.4,0.3-0.7,0.7-0.7h3.9
	c0.4,0,0.6,0.3,0.5,0.7l-3.7,15.2c-0.4,1.5,0.1,2.5,1,2.5c0.6,0,1.3-0.4,1.9-1.2c0.2-0.2,0.4-0.3,0.6-0.3c0.6,0,0.8,0.8,0.5,1.2
	c-0.9,1-1.8,1.6-3.1,1.6S221.6,96.1,222.4,93.1 M231,90.3c6,0.1,7.8-1.9,7.8-3.4c0-1.1-0.9-2.1-2.5-2.1
	C233.4,84.8,231.5,87.5,231,90.3 M229.4,91.6c0-4.3,2.9-8,7-8c2.4,0,3.9,1.5,3.9,3.3c0,1.7-0.9,2.8-2.2,3.5c-2,1.2-5,1.3-7.2,1.2
	c0.1,2.4,1.6,4.2,4,4.2c1.7,0,3-1,3.8-1.9c0.2-0.2,0.4-0.3,0.6-0.3c0.3,0,0.7,0.3,0.7,0.6c0,0.5-0.5,1-0.9,1.4
	c-1.3,1.2-2.8,1.6-4.2,1.6C231.8,97.2,229.4,94.9,229.4,91.6 M243.3,94l-0.5,2.4c-0.1,0.4-0.4,0.6-0.7,0.6c-0.4,0-0.7-0.3-0.6-0.7
	l0.8-4.3c0.1-0.3,0.2-0.6,0.7-0.6c0.2,0,0.6,0.1,0.7,0.7c0.3,1.4,1.8,3.9,4.9,3.9c2.1,0,3-1.3,3-2.4c0-1.2-0.9-1.8-2.1-2.2
	c-1.2-0.5-2.7-0.8-3.9-1.4c-1.1-0.6-1.9-1.5-1.9-2.9c0-2,1.6-3.4,4-3.4c2.1,0,3.7,1,4.6,2.4l0.4-1.8c0.1-0.4,0.3-0.6,0.7-0.6
	c0.5,0,0.7,0.4,0.6,0.8l-0.7,3.4c-0.1,0.4-0.3,0.6-0.7,0.6c-0.4,0-0.6-0.3-0.7-0.5c-0.1-0.6-1.2-3.2-4.1-3.2c-1.5,0-2.6,0.7-2.6,2.1
	c0,0.8,0.5,1.4,1.2,1.8c2.2,1.3,6.7,1.4,6.7,4.8c0,2.3-1.9,3.7-4.4,3.7C245.8,97.2,244,95.6,243.3,94 M272.1,89.3
	c0-2.4-1.1-4.4-3.7-4.4c-3.2,0-5.3,3.4-5.3,6.5c0,2.4,1.2,4.4,3.7,4.4C270,95.9,272,92.4,272.1,89.3 M264.9,102.9
	c0-0.4,0.2-0.7,0.7-0.7h3.6L271,95c-1.1,1.3-2.4,2.2-4.5,2.2c-3.3,0-4.9-2.7-4.9-5.7c0-4.4,3-7.9,6.7-7.9c2.6,0,4.2,1.6,4.6,3.4
	l0.7-2.5c0.1-0.4,0.4-0.7,0.8-0.7c0.5,0,0.7,0.4,0.7,0.8l-4.3,17.7h2.1c0.4,0,0.7,0.3,0.7,0.7c0,0.4-0.3,0.7-0.7,0.7h-7.1
	C265.2,103.6,264.9,103.3,264.9,102.9 M286.2,93.2l0.2-0.7c-1.4,2.7-3.4,4.6-5.8,4.6c-2.6,0-3.5-2.2-2.9-4.9l1.7-7.1h-2.3
	c-0.4,0-0.7-0.3-0.7-0.7s0.3-0.7,0.7-0.7h3.4c0.3,0,0.6,0.2,0.5,0.7l-1.9,7.8c-0.5,2.2,0.1,3.5,1.5,3.5c2.9,0,5.8-3.8,7-9.7l0.2-0.9
	h-2.3c-0.4,0-0.7-0.3-0.7-0.7s0.3-0.7,0.7-0.7h3.4c0.3,0,0.7,0.3,0.5,0.7l-2,8.8c-0.3,1.5-0.2,2.5,0.7,2.5c0.6,0,1.2-0.5,1.9-1.2
	c0.2-0.2,0.4-0.3,0.6-0.3c0.6,0,0.8,0.7,0.5,1.1c-0.9,1-2,1.7-3.1,1.7C286.6,97.2,285.6,95.9,286.2,93.2 M303,89.3
	c0-2.4-1.1-4.4-3.7-4.4c-3.2,0-5.3,3.4-5.3,6.5c0,2.4,1.2,4.4,3.7,4.4C300.9,95.9,303,92.4,303,89.3 M292.5,91.5
	c0-4.4,3-7.9,6.7-7.9c2.6,0,4.1,1.6,4.6,3.4l0.6-2.5c0.2-1.1,1.7-0.8,1.4,0.2l-2.2,8.7c-0.2,0.7-0.4,2.5,0.8,2.5
	c0.6,0,1.1-0.5,1.8-1.2c0.2-0.2,0.4-0.3,0.6-0.3c0.6,0,0.8,0.7,0.5,1.1c-0.9,1-1.8,1.7-3,1.7c-1.1,0-2.1-0.9-2.1-2.6
	c-1.2,1.5-2.5,2.6-4.8,2.6C294.2,97.2,292.5,94.5,292.5,91.5 M311.7,79c0-1,0.8-1.8,1.8-1.8c1,0,1.8,0.8,1.8,1.8
	c0,1-0.8,1.8-1.8,1.8C312.5,80.8,311.7,80,311.7,79 M310.1,93.1l2-7.8h-2.8c-0.4,0-0.7-0.3-0.7-0.7c0-0.4,0.3-0.7,0.7-0.7h3.9
	c0.3,0,0.6,0.2,0.5,0.7l-2.2,8.8c-0.4,1.5-0.2,2.5,0.7,2.5c0.6,0,1.3-0.5,1.9-1.2c0.2-0.2,0.4-0.3,0.6-0.3c0.6,0,0.8,0.8,0.5,1.1
	c-0.9,1-1.9,1.7-3.2,1.7C310.7,97.2,309.3,96.1,310.1,93.1 M318,94l-0.5,2.4c-0.1,0.4-0.4,0.6-0.7,0.6c-0.4,0-0.7-0.3-0.6-0.7
	L317,92c0.1-0.3,0.2-0.6,0.7-0.6c0.2,0,0.6,0.1,0.7,0.7c0.3,1.4,1.8,3.9,4.9,3.9c2.1,0,3-1.3,3-2.4c0-1.2-0.9-1.8-2.1-2.2
	c-1.2-0.5-2.7-0.8-3.9-1.4c-1.1-0.6-1.9-1.5-1.9-2.9c0-2,1.6-3.4,4-3.4c2.1,0,3.7,1,4.6,2.4l0.4-1.8c0.1-0.4,0.3-0.6,0.7-0.6
	c0.5,0,0.7,0.4,0.6,0.8l-0.7,3.4c-0.1,0.4-0.3,0.6-0.7,0.6c-0.4,0-0.6-0.3-0.7-0.5c-0.1-0.6-1.2-3.2-4.1-3.2c-1.5,0-2.6,0.7-2.6,2.1
	c0,0.8,0.5,1.4,1.2,1.8c2.2,1.3,6.7,1.4,6.7,4.8c0,2.3-1.9,3.7-4.4,3.7C320.5,97.2,318.7,95.6,318,94 M333.1,93.4
	c1,0,1.9,0.8,1.9,1.9c0,1.1-0.8,1.9-1.9,1.9s-1.9-0.8-1.9-1.9C331.2,94.2,332.1,93.4,333.1,93.4 M152.6,45.3h8v52.8h-8V45.3z
	 M139.8,51.7h8v46.4h-8V51.7z M119.8,95.8l15.2-57l8.1,2.2l-15.2,57L119.8,95.8z M14.9,80.5h57.6v8H14.9V80.5z M36.1,89.8l56.6-15.3
	l2.2,8.1L38.3,97.9L36.1,89.8z M67.6,91.9l48-33.8l4.8,6.9l-48,33.8L67.6,91.9z M91.2,93.1l33.6-48.3l6.9,4.8L98.1,97.9L91.2,93.1z"
	/>
</svg>
