<?xml version="1.0" encoding="utf-8"?>
<!-- Generator: Adobe Illustrator 24.0.0, SVG Export Plug-In . SVG Version: 6.00 Build 0)  -->
<svg version="1.1" id="图层_1" xmlns="http://www.w3.org/2000/svg" xmlns:xlink="http://www.w3.org/1999/xlink" x="0px" y="0px"
	 viewBox="0 0 350 142" style="enable-background:new 0 0 350 142;" xml:space="preserve">
<title>Group 4 Copy 2</title>
<desc>Created with Sketch.</desc>
<g id="Web">
	<g id="About-us" transform="translate(-925.000000, -5640.000000)">
		<g id="Group-4-Copy-2" transform="translate(925.000000, 5640.000000)">
			<g id="Grand-Chelem-Event-SA-_x5F_-Sport-_x26_-Event-Management-1" transform="translate(96.000000, 48.000000)">
				<path id="Path" d="M3.6-5.5c0,0,20.7,6.3,10.9,27.1C14.5,21.6,31.6,1.8,3.6-5.5L3.6-5.5z"/>
				<path id="Path_1_" d="M10.6,7.1c1.1,2.9-0.1,6-2.7,6.9c-2.5,0.9-5.4-0.8-6.5-3.8c-1.1-2.9,0.1-6,2.7-6.9
					C6.7,2.5,9.6,4.2,10.6,7.1L10.6,7.1z"/>
				<path id="Path_2_" d="M17.6,26.6c0,0,25.5,29.9-1.6,21.7C15.9,48.3,50.9,63.1,17.6,26.6L17.6,26.6z"/>
				<path id="Path_3_" d="M-18.6-3c0,0,65.5,66.8,1.3,51.7c0,0,37.9,13.7,31.2-10.7C9.5,21.6-18.6-3-18.6-3L-18.6-3z"/>
				<path id="Shape" d="M64.1,41.9l-2-2c-1.5,1.4-2.9,2.3-5,2.3c-3.4,0-5.8-2.9-5.8-6.4c0-3.5,2.4-6.3,5.8-6.3c2,0,3.5,0.9,4.9,2.2
					l2-2.3c-1.7-1.6-3.6-2.8-6.9-2.8c-5.3,0-9,4.2-9,9.3c0,5.2,3.8,9.2,8.9,9.2C60.2,45.1,62.2,43.9,64.1,41.9L64.1,41.9z
					 M83.7,37.2v7.5h3.1V26.9h-3.1v7.4h-8.4v-7.4h-3.1v17.9h3.1v-7.5H83.7L83.7,37.2z M109.3,26.9h-13v17.9h13.1V42h-10v-4.8h8.8
					v-2.8h-8.8v-4.7h9.9V26.9L109.3,26.9z M118.1,44.8h12.3v-2.9h-9.2v-15h-3.1V44.8L118.1,44.8z M151.6,26.9h-13v17.9h13.1V42h-10
					v-4.8h8.8v-2.8h-8.8v-4.7h9.9V26.9L151.6,26.9z M174.5,32v12.8h3.1V26.9h-3.3l-5.3,8.5l-5.3-8.5h-3.3v17.9h3V32l5.5,8.4h0.1
					L174.5,32L174.5,32z"/>
				<path id="Shape_1_" d="M64.4,17.6v-7.5H57v2.7h4.5v3.3c-1.1,0.8-2.6,1.4-4.2,1.4c-3.6,0-6-2.7-6-6.4c0-3.5,2.5-6.3,5.7-6.3
					c2.2,0,3.6,0.7,4.9,1.9l1.9-2.4c-1.8-1.6-3.7-2.4-6.7-2.4c-5.3,0-9,4.2-9,9.3c0,5.2,3.6,9.2,9.1,9.2
					C60.2,20.4,62.7,19.1,64.4,17.6L64.4,17.6z M88.3,20.1l-4.7-6.8c2.5-0.7,4.2-2.5,4.2-5.4c0-3.5-2.5-5.7-6.5-5.7h-7.8v17.9h3.1
					v-6.2h3.9l4.3,6.2H88.3L88.3,20.1z M84.6,8.1c0,1.8-1.4,3-3.6,3h-4.5v-6H81C83.2,5.1,84.6,6.1,84.6,8.1L84.6,8.1z M105.3,2.1
					h-2.9l-7.7,18h3.2l1.8-4.3h8.3l1.8,4.3h3.3L105.3,2.1L105.3,2.1z M106.8,13h-6l3-7.2L106.8,13L106.8,13z M133.2,14.6l-9.4-12.4
					H121v17.9h3V7.4l9.7,12.7h2.6V2.2h-3V14.6L133.2,14.6z M161.6,11.1c0-5.1-3.8-8.9-9.3-8.9h-6.5v17.9h6.5
					C157.8,20.1,161.6,16.2,161.6,11.1L161.6,11.1z M158.3,11.2c0,3.5-2.4,6.1-6.1,6.1h-3.4V5.1h3.4C155.9,5.1,158.3,7.7,158.3,11.2
					L158.3,11.2z"/>
			</g>
		</g>
	</g>
</g>
</svg>
