<?xml version="1.0" encoding="utf-8"?>
<!-- Generator: Adobe Illustrator 24.0.0, SVG Export Plug-In . SVG Version: 6.00 Build 0)  -->
<svg version="1.1" id="图层_1" xmlns="http://www.w3.org/2000/svg" xmlns:xlink="http://www.w3.org/1999/xlink" x="0px" y="0px"
	 viewBox="0 0 350 142" style="enable-background:new 0 0 350 142;" xml:space="preserve">
<g id="Web">
	<g id="About-us" transform="translate(-545.000000, -6064.000000)">
		<g id="Group-4-Copy" transform="translate(545.000000, 6064.000000)">
			<g id="Vitesse-maxi-sur-le-réseau-Swisscom-_-Wingo-2" transform="translate(116.000000, 53.000000)">
				<path id="Shape" d="M131.6,12c-4.5,0-8.1,3.6-8.1,8.4s3.6,8.4,8.1,8.4c4.5,0,8.1-3.6,8.1-8.4S136.1,12,131.6,12z M146.1,7.5
					c3.8,3.4,5.7,8.2,5.7,13.2s-2.1,9.6-5.9,13c-3.8,3.4-9,5-15,5c-5.5,0-10.5-1.9-14-5.3c-3.6-3.4-5.7-7.9-5.7-12.7
					c0-5.3,2.1-9.8,5.7-13.4c3.8-3.4,8.8-5.3,14.5-5.3S142.3,4.1,146.1,7.5z M87.6,28.4c4.8,0,8.3-3.6,8.3-8.2S92.4,12,87.6,12
					c-5,0-8.3,3.4-8.3,8.2S82.8,28.4,87.6,28.4z M106.9,2.9c0.2,0,0.5,0.2,0.5,0.5v31.9c0,5.3-0.7,8.4-2.4,11.3
					c-3.1,5.5-9,8.4-17.4,8.4c-7.1,0-12.6-1.7-15.9-5c-2.4-2.4-3.3-4.8-3.8-8.9c0-0.2,0-0.2,0.2-0.5c0,0,0.2-0.2,0.5-0.2h11.9
					c0.2,0,0.5,0.2,0.5,0.5c0.7,3.4,2.9,4.8,6.4,4.8c3.1,0,5.5-1.2,6.9-2.9c1.2-1.4,1.4-3.4,1.4-7.2v-1.7C92.6,36.8,89.5,38,85,38
					c-5,0-9.5-1.7-12.8-5c-3.3-3.1-5-7.7-5-12.7c0-10.3,7.4-18.2,17.4-18.2c4.5,0,7.9,1.2,11.2,3.8V3.1c0-0.2,0.2-0.5,0.5-0.5h10.7
					V2.9z M49.8,2.2c5.7,0,10,2.4,11.9,6.5c1,2.4,1.4,5,1.4,9.6v19.4c0,0.2-0.2,0.5-0.5,0.5H51.9c-0.2,0-0.5-0.2-0.5-0.5V19.2
					c0-5-1.7-7.2-5.5-7.2c-2.1,0-4.3,1-5.5,2.2c-1.2,1.2-1.4,2.4-1.4,4.8v18.5c0,0.2-0.2,0.5-0.5,0.5H27.9c-0.2,0-0.5-0.2-0.5-0.5
					V3.4c0-0.2,0.2-0.5,0.5-0.5h10.7c0.2,0,0.5,0.2,0.5,0.5v3.1C42.4,3.4,45.5,2.2,49.8,2.2z M21.4,2.9c0.2,0,0.5,0.2,0.5,0.5v34.1
					c0,0.2-0.2,0.5-0.5,0.5H10.7c-0.2,0-0.5-0.2-0.5-0.5V3.4c0-0.2,0.2-0.5,0.5-0.5H21.4z M5.5,2.9c0.2,0,0.2,0,0.5,0.2
					c0,0,0.2,0.2,0,0.5L-6.6,37.7c0,0.2-0.2,0.2-0.5,0.2h-10.5c-0.2,0-0.5,0-0.5-0.2l-5.5-16.1l-5.9,16.1c0,0.2-0.2,0.2-0.5,0.2h-10
					c-0.2,0-0.5-0.2-0.5-0.2L-52.8,3.6c0-0.2,0-0.2,0-0.5c0-0.2,0.2-0.2,0.5-0.2h10.7c0.2,0,0.5,0.2,0.5,0.2l6.4,19.2l7.1-19.2
					c0-0.2,0.2-0.2,0.5-0.2h6.9c0.2,0,0.5,0.2,0.5,0.2l7.1,19.4l6.9-19.4c0-0.2,0.2-0.2,0.5-0.2H5.5z"/>
				<path id="Path" d="M168.2-6.3c0-1.7,2.1-3.1,2.6-5.2c0.2-1.4-0.5-2.8-1.4-3.8c-0.9-0.9-2.6-1.7-3.7-1.4
					c-2.3,0.5-3.7,2.6-5.1,2.6c-1.4,0-3.3-2.4-5.4-2.8c-1.4-0.2-2.8,0.5-3.7,1.4s-1.6,2.6-1.4,3.8c0.5,2.4,2.6,3.8,2.6,5.2
					s-2.1,3.1-2.6,5.2c-0.2,1.4,0.5,2.8,1.4,3.8c0.9,0.9,2.6,1.7,3.7,1.4c2.3-0.5,3.7-2.6,5.1-2.6c1.4,0,3,2.1,5.1,2.6
					c1.4,0.2,2.8-0.5,3.7-1.4c0.9-0.9,1.6-2.6,1.4-3.8C170.3-3.3,168.2-4.7,168.2-6.3"/>
			</g>
		</g>
	</g>
</g>
</svg>
